/* XPM */
static char * add_xpm[] = {
"16 16 82 1",
" 	c None",
".	c #50C13C",
"+	c #4FC03C",
"@	c #4FC13C",
"#	c #50C13D",
"$	c #50C33D",
"%	c #51C43D",
"&	c #55CD40",
"*	c #52C53E",
"=	c #4FBF3C",
"-	c #51C23E",
";	c #50C03B",
">	c #56D042",
",	c #4EBC3B",
"'	c #4FBC3C",
")	c #43B82F",
"!	c #44B830",
"~	c #50C03C",
"{	c #56D041",
"]	c #4EBE3C",
"^	c #56D142",
"/	c #49BA36",
"(	c #82D075",
"_	c #80CF72",
":	c #49BA35",
"<	c #57D142",
"[	c #4DBE3C",
"}	c #51C23D",
"|	c #4CBB38",
"1	c #4DBC3A",
"2	c #F4FBF3",
"3	c #EEF9EC",
"4	c #4ABA37",
"5	c #4CBB39",
"6	c #55CD41",
"7	c #4EBD3A",
"8	c #EEF8EC",
"9	c #E9F6E6",
"0	c #4BBA37",
"a	c #4EBB3B",
"b	c #55CE41",
"c	c #4EBE3B",
"d	c #48BA35",
"e	c #4ABB37",
"f	c #4CBC39",
"g	c #EDF8EB",
"h	c #E8F6E5",
"i	c #4FBE3B",
"j	c #44B82F",
"k	c #85D177",
"l	c #E3F4E0",
"m	c #E5F5E2",
"n	c #FCFEFC",
"o	c #FCFEFB",
"p	c #E4F5E2",
"q	c #E3F4DF",
"r	c #4EBD3B",
"s	c #4FBD3B",
"t	c #42B72E",
"u	c #8AD37E",
"v	c #EFF9ED",
"w	c #F1FAF0",
"x	c #F1FAEF",
"y	c #FEFEFD",
"z	c #FDFEFD",
"A	c #F2FAF0",
"B	c #85D178",
"C	c #51C33D",
"D	c #50BD3D",
"E	c #52BE40",
"F	c #4FBC3D",
"G	c #50BC3D",
"H	c #4BBB38",
"I	c #4FBE3C",
"J	c #F5FBF4",
"K	c #56D141",
"L	c #88D27B",
"M	c #57D041",
"N	c #4FC03B",
"O	c #51C53D",
"P	c #55CC40",
"Q	c #4FBD3C",
"      .+@#      ",
"   $%&*==*&$-   ",
"  ;>=,')!',~{~  ",
" ]^,,,/(_:,,,<[ ",
" }=,,|12345,,+@ ",
" 6,,5/789045,ab ",
"c%'dedfgh//e:'*]",
"iijklmmnopmq_!=c",
"rstuvwxyzxAvB)=i",
"iC':D'EghFGD/'*]",
"~&,,Hdfgh//H,,& ",
" *I,,H1Jv45,,=C ",
" rK,,,/LBd,,,<= ",
"  .{I,'))',=MN  ",
"   O*PCQI%&C$   ",
"      $+~}      "};
