/* XPM */
static char * C:\Users\frank\Documents\GitHub\DSI_Studio\icons\add_surface_xpm[] = {
"19 24 155 2",
"  	c None",
". 	c #D3D3D1",
"+ 	c #CACAC8",
"@ 	c #D1D1CF",
"# 	c #D3D3D2",
"$ 	c #CFCFCC",
"% 	c #DDDDDC",
"& 	c #E3E3E1",
"* 	c #C7C7C6",
"= 	c #E0E0DE",
"- 	c #B5B5B3",
"; 	c #BEBEBB",
"> 	c #DEDEDD",
", 	c #C6C6C3",
"' 	c #E3E3E3",
") 	c #DDDDDB",
"! 	c #D9D9D8",
"~ 	c #D2D2D0",
"{ 	c #D6D6D4",
"] 	c #D0D0CF",
"^ 	c #D5D5D4",
"/ 	c #BDBDBA",
"( 	c #BBBBB9",
"_ 	c #D7D7D7",
": 	c #D6D6D5",
"< 	c #D7D7D5",
"[ 	c #D5D5D3",
"} 	c #D7D7D6",
"| 	c #B5B5B2",
"1 	c #D8D8D7",
"2 	c #D0D0CE",
"3 	c #DCDCDB",
"4 	c #CFCFCE",
"5 	c #A7A7A5",
"6 	c #B2B2AF",
"7 	c #DFDFDE",
"8 	c #CBCBC9",
"9 	c #E4E4E4",
"0 	c #CDCDCB",
"a 	c #DADAD8",
"b 	c #C0C0BD",
"c 	c #BCBCBA",
"d 	c #CECECD",
"e 	c #B3B3B0",
"f 	c #E7E7E6",
"g 	c #AFAFAC",
"h 	c #C7C7C5",
"i 	c #BEBEBC",
"j 	c #C5C5C2",
"k 	c #E0E0DF",
"l 	c #C2C2C0",
"m 	c #D8D8D6",
"n 	c #C8C8C6",
"o 	c #AFAFAD",
"p 	c #E1E1E0",
"q 	c #A2A29F",
"r 	c #E4E4E2",
"s 	c #C5C5C3",
"t 	c #C9C9C7",
"u 	c #E0E0E0",
"v 	c #C3C3C1",
"w 	c #B9B9B7",
"x 	c #B6B6B3",
"y 	c #CACAC9",
"z 	c #C4C4C2",
"A 	c #BABAB8",
"B 	c #D9D9D7",
"C 	c #BABAB7",
"D 	c #B8B8B5",
"E 	c #B1B1AE",
"F 	c #CCCCCA",
"G 	c #BFBFBD",
"H 	c #CBCBCA",
"I 	c #E1E1DF",
"J 	c #B4B4B1",
"K 	c #B8B8B6",
"L 	c #CCCCC9",
"M 	c #E3E3E2",
"N 	c #C1C1BF",
"O 	c #BCBCB9",
"P 	c #B7B7B4",
"Q 	c #CECECC",
"R 	c #B1B1AF",
"S 	c #ACACA9",
"T 	c #BBBBB8",
"U 	c #B2B2B0",
"V 	c #D0D0CD",
"W 	c #A9A9A6",
"X 	c #ACACAA",
"Y 	c #ADADAB",
"Z 	c #C3C3C0",
"` 	c #BFBFBC",
" .	c #A3A39F",
"..	c #9B9B98",
"+.	c #DBDBDB",
"@.	c #AEAEAC",
"#.	c #B7B7B3",
"$.	c #C0C0BE",
"%.	c #C6C6C4",
"&.	c #A5A5A2",
"*.	c #A3A3A0",
"=.	c #A7A7A4",
"-.	c #A9A9A5",
";.	c #DEDEDC",
">.	c #AEAEAB",
",.	c #AAAAA7",
"'.	c #C2C2BF",
").	c #A8A8A5",
"!.	c #9A9A97",
"~.	c #ADADAA",
"{.	c #B0B0AD",
"].	c #ABABA9",
"^.	c #E5E5E3",
"/.	c #B1B1AD",
"(.	c #ABABA8",
"_.	c #CDCDCC",
":.	c #9F9F9C",
"<.	c #B0B0AE",
"[.	c #A9A9A7",
"}.	c #D1D1D0",
"|.	c #C4C4C4",
"1.	c #E6E6E5",
"2.	c #C5C5C1",
"3.	c #CDCDCA",
"4.	c #A4A4A1",
"5.	c #B6B6B4",
"6.	c #B9B9B8",
"7.	c #9E9E9C",
"8.	c #B7B7B5",
"9.	c #C8C8C5",
"0.	c #B8B8B4",
"a.	c #A5A5A1",
"b.	c #EBEBEB",
"c.	c #A0A09D",
"d.	c #BDBDBB",
"e.	c #ADADA9",
"f.	c #CECECB",
"g.	c #C7C7C4",
"h.	c #A8A8A4",
"i.	c #A2A29E",
"j.	c #939390",
"k.	c #AFAFAA",
"l.	c #CFCFCD",
"m.	c #B4B4B0",
"n.	c #AFAFAB",
"o.	c #EBEBEA",
"p.	c #BDBDB9",
"q.	c #A6A6A2",
"r.	c #BABAB6",
"s.	c #B3B3AF",
"t.	c #BBBBB7",
"u.	c #C1C1BE",
"v.	c #C4C4C1",
"w.	c #DADAD9",
"x.	c #C8C8C7",
"            . + @   # $               ",
"        % & * = -   ; > , ' )         ",
"      ! ~ { ] ^ /   ( _ : < [         ",
"      ^ < % } ] -   | 1 [ % 2 3       ",
"    . + 4 ) 3 [ 5   6 7 8 9 0 [ 7     ",
"    a b c d ) ^ e f g } > h i j 7     ",
"    k l + 8 m n o p q 8 r s h t u     ",
"    v w x y s z A B C n n y D ; 0     ",
"  < i s E l 3 F s f G H I J K v L M   ",
"  N O A 5 4 < h P Q R @ # s S A T ~   ",
"! x U i x 1 7 V W # E [ M F c K e O   ",
"B T X b Y Z a `  .t ..] +.; A N @.#.k ",
": C P P $.%.% &.*.=.-.6 ;.c / P >.N ) ",
"m + w N ,.` '.).!.z ~.{.+ D ].+ P T ^.",
"} P s # A i /.U (._.:.<.[.A <.}.T |.1.",
". 2.+ z 3.4.G i 5.6.w - G 7.. h b l   ",
"  Z ` C t 6 {.x 8.p Y 9.>.,.t l + j   ",
"  : t ~.j 0.=.a.b b.g c.| D d.e.f.<   ",
"    g.h.v J {.i.{.  D j.5.N 8.k.l.    ",
"    b m.6 c ( A {.  ( {.; R >.n.o.    ",
"      p.q.T r.,.(.  U 6 s.6 E `       ",
"      3 t.| u.O s   v.F u.| j w.      ",
"          F t x.l.  h n z )           ",
"            B k     u _.^             "};
