/* XPM */
static char * C:\Users\frank\Documents\GitHub\DSI_Studio\icons\add_surface_xpm[] = {
"22 22 89 1",
" 	c None",
".	c #CDCDCD",
"+	c #C8C8C8",
"@	c #EFEFEF",
"#	c #C1C1C1",
"$	c #DCDCDC",
"%	c #B4B4B4",
"&	c #BBBBBB",
"*	c #ACACAC",
"=	c #B0B0B0",
"-	c #9C9C9C",
";	c #ABABAB",
">	c #C6C6C6",
",	c #D6D6D6",
"'	c #F7F7F7",
")	c #ECECEC",
"!	c #B6B6B6",
"~	c #AAAAAA",
"{	c #CACACA",
"]	c #BABABA",
"^	c #BCBCBC",
"/	c #9F9F9F",
"(	c #B7B7B7",
"_	c #CBCBCB",
":	c #D4D4D4",
"<	c #BDBDBD",
"[	c #CECECE",
"}	c #C4C4C4",
"|	c #C3C3C3",
"1	c #B9B9B9",
"2	c #D9D9D9",
"3	c #B5B5B5",
"4	c #BFBFBF",
"5	c #9B9B9B",
"6	c #F8F8F8",
"7	c #DFDFDF",
"8	c #DBDBDB",
"9	c #E6E6E6",
"0	c #B2B2B2",
"a	c #C0C0C0",
"b	c #D1D1D1",
"c	c #B3B3B3",
"d	c #BEBEBE",
"e	c #B1B1B1",
"f	c #F2F2F2",
"g	c #E5E5E5",
"h	c #CCCCCC",
"i	c #D5D5D5",
"j	c #A8A8A8",
"k	c #D8D8D8",
"l	c #989898",
"m	c #FDFDFD",
"n	c #E9E9E9",
"o	c #919191",
"p	c #CFCFCF",
"q	c #F9F9F9",
"r	c #EDEDED",
"s	c #F3F3F3",
"t	c #C7C7C7",
"u	c #D0D0D0",
"v	c #C9C9C9",
"w	c #A4A4A4",
"x	c #DDDDDD",
"y	c #FFFFFF",
"z	c #AEAEAE",
"A	c #8E8E8E",
"B	c #EAEAEA",
"C	c #FCFCFC",
"D	c #EBEBEB",
"E	c #E4E4E4",
"F	c #F0F0F0",
"G	c #D2D2D2",
"H	c #ADADAD",
"I	c #E8E8E8",
"J	c #A6A6A6",
"K	c #9A9A9A",
"L	c #999999",
"M	c #E7E7E7",
"N	c #AFAFAF",
"O	c #FAFAFA",
"P	c #F6F6F6",
"Q	c #C5C5C5",
"R	c #DEDEDE",
"S	c #F4F4F4",
"T	c #F5F5F5",
"U	c #9E9E9E",
"V	c #EEEEEE",
"W	c #A7A7A7",
"X	c #C2C2C2",
"                      ",
" . +@#$%&*=-;>,')     ",
",!#=+~{~>]^&%/( _     ",
":<>[}.|]12(34_5)^6    ",
"7|:8{90a^b&,c<d<ef    ",
"ghig{9j8kcd^l;~<~m    ",
"nb,@{$<{:&opqn,|+6    ",
"rikstg(_uv~w_x,{y'    ",
"sb7@|nz:,<kA!(.B@m    ",
"C+DE|Fck#G_Hw(Cyym    ",
" cy#I2:8Jy%GJK/L:M'   ",
" &yNyeO(_,F&n<^z-ww/Af",
" iP]F{M&nQRC%7gd{t+_  ",
" f22k@^x1S+T u+T nG   ",
"  1y=y>}P& }x y:cu    ",
"  k77umUy,+ E&V       ",
"  OWy=fb^yS<y .C      ",
"  yXg)&BV1 ya         ",
"    &OGpy2            ",
"    O OVy             ",
"       fy             ",
"        f             "};
