/* XPM */
static char * C:\Users\frank\Documents\GitHub\DSI_Studio\icons\add_surface_xpm[] = {
"22 22 136 2",
"  	c None",
". 	c #856DB5",
"+ 	c #836BB4",
"@ 	c #846DB5",
"# 	c #8067B2",
"$ 	c #7E65AE",
"% 	c #7C65AD",
"& 	c #7E66AF",
"* 	c #7F67B0",
"= 	c #7B62AF",
"- 	c #7960AA",
"; 	c #7861AA",
"> 	c #7B62AD",
", 	c #775EAB",
"' 	c #765DAA",
") 	c #745CA8",
"! 	c #7459A8",
"~ 	c #745AA8",
"{ 	c #60429D",
"] 	c #7157A6",
"^ 	c #7057A5",
"/ 	c #7056A6",
"( 	c #7056A5",
"_ 	c #CFCCCB",
": 	c #ABA9A5",
"< 	c #96938E",
"[ 	c #FFFFFF",
"} 	c #7F6BAB",
"| 	c #6A509F",
"1 	c #694F9F",
"2 	c #8B78B3",
"3 	c #FFFFFE",
"4 	c #A8A5A1",
"5 	c #CECCCA",
"6 	c #6B50A2",
"7 	c #6B50A3",
"8 	c #AAA8A5",
"9 	c #A09E9A",
"0 	c #999693",
"a 	c #F5F4F2",
"b 	c #6C53A0",
"c 	c #7962A9",
"d 	c #A8A5A2",
"e 	c #9E9B99",
"f 	c #BBB9B6",
"g 	c #674C9F",
"h 	c #674CA0",
"i 	c #7C7773",
"j 	c #93918F",
"k 	c #B4B2B0",
"l 	c #D4D2D1",
"m 	c #A3A09D",
"n 	c #C8C6C9",
"o 	c #CAC8C9",
"p 	c #DEDDDC",
"q 	c #B6B4B2",
"r 	c #959391",
"s 	c #63469D",
"t 	c #787571",
"u 	c #8D8A87",
"v 	c #B9B7B5",
"w 	c #C5C4C2",
"x 	c #8C8985",
"y 	c #959390",
"z 	c #93908D",
"A 	c #C3C0C0",
"B 	c #B5B3B1",
"C 	c #797773",
"D 	c #7A7672",
"E 	c #5E439A",
"F 	c #5F439A",
"G 	c #73706B",
"H 	c #777470",
"I 	c #D1CECE",
"J 	c #AFAEAB",
"K 	c #7E7B78",
"L 	c #7B7875",
"M 	c #73716D",
"N 	c #9F9E9B",
"O 	c #CBCAC9",
"P 	c #615E5A",
"Q 	c #74716D",
"R 	c #5B3D98",
"S 	c #66635F",
"T 	c #FDFDFD",
"U 	c #625F5A",
"V 	c #6B6864",
"W 	c #6D6965",
"X 	c #6C6865",
"Y 	c #625E5B",
"Z 	c #FDFDFC",
"` 	c #67625F",
" .	c #6A6764",
"..	c #565350",
"+.	c #C9C8C7",
"@.	c #9B9996",
"#.	c #676560",
"$.	c #686662",
"%.	c #999795",
"&.	c #CAC9C9",
"*.	c #666360",
"=.	c #686562",
"-.	c #A4A2A1",
";.	c #B4B2B2",
">.	c #6D6B68",
",.	c #6F6D6A",
"'.	c #6D6B67",
").	c #B0AFAD",
"!.	c #A5A4A3",
"~.	c #65625F",
"{.	c #5F5C59",
"].	c #716F6C",
"^.	c #9F9D9B",
"/.	c #C3C2C1",
"(.	c #777673",
"_.	c #6C6A67",
":.	c #9E9D9B",
"<.	c #6E6C69",
"[.	c #6A6865",
"}.	c #7B7776",
"|.	c #807F7C",
"1.	c #FAFAFB",
"2.	c #797875",
"3.	c #F7F7F6",
"4.	c #7C7A77",
"5.	c #777572",
"6.	c #767470",
"7.	c #8A8887",
"8.	c #797775",
"9.	c #4D4B48",
"0.	c #484643",
"a.	c #454340",
"b.	c #464440",
"c.	c #494744",
"d.	c #4F4D49",
"e.	c #8F8D8C",
"                                            ",
"                                            ",
"                                            ",
"    . + @ @ @ @ @ + +                       ",
"  # $ % & * * * * & % $ #                   ",
"  = -                 ; >                   ",
"  , '                 ) '                   ",
"  ! ~             { ] ^ ^ /                 ",
"  ( (       _ : < [ } | 1 2 3 4 5           ",
"  6 7       8 9 0 a [ b c [ d e f           ",
"  g h       i j k l m n o p q r i           ",
"  s s       t u v w x y z A B C D           ",
"  E F       G H I J K L M N O P Q           ",
"  R R       S [ T U V W X Y Z [ `           ",
"             ...+.@.#.$.#.%.&... .          ",
"            *.=.-.;.>.,.'.).!.~.*.          ",
"            {.].^./.>.(._./.:.<.{.          ",
"            [.}.|.1.[ 2.[ 3.4.5.6.          ",
"            7.8.9.0.a.9.b.c.d._.e.          ",
"                                            ",
"                                            ",
"                                            "};
