/* XPM */
static char * C:\Users\frank\Documents\GitHub\DSI_Studio\icons\atlas_xpm[] = {
"22 22 200 2",
"  	c None",
". 	c #9FA19B",
"+ 	c #C0C2B9",
"@ 	c #234C88",
"# 	c #627C9E",
"$ 	c #D4D5D1",
"% 	c #D8D8D5",
"& 	c #CCCEC9",
"* 	c #466693",
"= 	c #7689A1",
"- 	c #4E9A06",
"; 	c #B9BBB5",
"> 	c #BABCB6",
", 	c #B9BCB5",
"' 	c #B4B7B1",
") 	c #385E86",
"! 	c #869EA2",
"~ 	c #FEFEFE",
"{ 	c #FDFDFD",
"] 	c #FFFFFF",
"^ 	c #829DA7",
"/ 	c #396671",
"( 	c #B7BCB1",
"_ 	c #B8BCB2",
": 	c #B3BBAB",
"< 	c #5D9F1E",
"[ 	c #4D9A05",
"} 	c #FBFBFB",
"| 	c #4B6C9B",
"1 	c #A6B3B5",
"2 	c #F3F3F2",
"3 	c #F9FAF9",
"4 	c #9EADB1",
"5 	c #2A567D",
"6 	c #FAFBF9",
"7 	c #FAFBFA",
"8 	c #F9FBF8",
"9 	c #B6B8B3",
"0 	c #B4B6B1",
"a 	c #436699",
"b 	c #D6D6D4",
"c 	c #E8E9E8",
"d 	c #F0F1F0",
"e 	c #CFD1CE",
"f 	c #204A87",
"g 	c #ADE278",
"h 	c #A4E167",
"i 	c #A8E26E",
"j 	c #D7D9D5",
"k 	c #D5D6D2",
"l 	c #D3D6D1",
"m 	c #C9CCC6",
"n 	c #4F70A0",
"o 	c #CCD1D6",
"p 	c #E3E6E7",
"q 	c #EFF1F0",
"r 	c #E8EAEA",
"s 	c #C1C9D0",
"t 	c #4E6F9F",
"u 	c #BEE597",
"v 	c #C7E8A6",
"w 	c #C5EB9F",
"x 	c #D6D8D3",
"y 	c #F5F5F5",
"z 	c #FBFBFA",
"A 	c #CDD0CA",
"B 	c #5C7AA7",
"C 	c #9EB4D0",
"D 	c #6D89B0",
"E 	c #BBE594",
"F 	c #F8F8F6",
"G 	c #FAFBF8",
"H 	c #C3EB9D",
"I 	c #FAFAFA",
"J 	c #FAFAF9",
"K 	c #406397",
"L 	c #5F86B6",
"M 	c #6387B5",
"N 	c #6D8EB9",
"O 	c #6087B7",
"P 	c #BAE491",
"Q 	c #F8F9F6",
"R 	c #F6F8F4",
"S 	c #C2EA99",
"T 	c #C6C8C2",
"U 	c #C5C8C2",
"V 	c #C7CAC3",
"W 	c #5A81B1",
"X 	c #D0D1D2",
"Y 	c #CDCFCF",
"Z 	c #D3D5D6",
"` 	c #668BB8",
" .	c #B0E180",
"..	c #8EDD40",
"+.	c #83DA2D",
"@.	c #B7E788",
"#.	c #D0D3CD",
"$.	c #C3C6BF",
"%.	c #5980B1",
"&.	c #C5CBD0",
"*.	c #C5CBD1",
"=.	c #6489B7",
"-.	c #A7DE71",
";.	c #7CD821",
">.	c #ADE474",
",.	c #D1D4CE",
"'.	c #C5C9C1",
").	c #C8CCC5",
"!.	c #5880B1",
"~.	c #B1BCC9",
"{.	c #B2BDCA",
"].	c #6086B6",
"^.	c #A4DE6E",
"/.	c #7EDA25",
"(.	c #ABE572",
"_.	c #D3D5D0",
":.	c #C8CBC4",
"<.	c #CBCEC7",
"[.	c #4F7AB0",
"}.	c #5F8DC2",
"|.	c #567FB3",
"1.	c #A3DC6A",
"2.	c #81DB28",
"3.	c #A9E46E",
"4.	c #D4D7D1",
"5.	c #A8ABA4",
"6.	c #A6A9A2",
"7.	c #C8CBC5",
"8.	c #4C78AE",
"9.	c #5786BC",
"0.	c #648EC0",
"a.	c #A1DD67",
"b.	c #6BB323",
"c.	c #6BB423",
"d.	c #A8E56B",
"e.	c #B2B5AF",
"f.	c #D3D5D2",
"g.	c #D1D2CF",
"h.	c #A4A6A1",
"i.	c #4B78AE",
"j.	c #3B67A0",
"k.	c #355D94",
"l.	c #3E69A1",
"m.	c #4E7BB1",
"n.	c #7CB544",
"o.	c #C1CAB8",
"p.	c #C1CBB7",
"q.	c #7DB644",
"r.	c #B1B4AD",
"s.	c #E3E4E2",
"t.	c #FCFCFC",
"u.	c #A7AAA4",
"v.	c #244E8B",
"w.	c #355F99",
"x.	c #97A7B9",
"y.	c #CBCCC7",
"z.	c #96A6B7",
"A.	c #406DA6",
"B.	c #7BB543",
"C.	c #FBFCFA",
"D.	c #7CB543",
"E.	c #D8DAD4",
"F.	c #A9ACA6",
"G.	c #A6A8A2",
"H.	c #CACDC7",
"I.	c #2B558F",
"J.	c #97AAC2",
"K.	c #EFEFED",
"L.	c #B0BFD2",
"M.	c #2F5994",
"N.	c #9CDC5D",
"O.	c #77AF40",
"P.	c #74B13A",
"Q.	c #A4E563",
"R.	c #D8DBD4",
"S.	c #D2D6CE",
"T.	c #D4D8D0",
"U.	c #244E8A",
"V.	c #3C69A2",
"W.	c #39649D",
"X.	c #2B5692",
"Y.	c #36619A",
"Z.	c #4975AC",
"`.	c #99DB58",
" +	c #89E133",
".+	c #A1E55E",
"++	c #D4D7D0",
"@+	c #D3D5D1",
"#+	c #3D6AA3",
"$+	c #4371AB",
"%+	c #416FA9",
"&+	c #4573AD",
"*+	c #4977AF",
"=+	c #8ED04C",
"-+	c #9CE059",
";+	c #97DB56",
">+	c #565654",
",+	c #5F615E",
"'+	c #0E1F36",
")+	c #407F04",
"                                            ",
"      . . + + + @ # $ % & * = + + - -       ",
"      . ; > , ' ) ! ~ { ] ^ / ( _ : < [     ",
"    . } } } } . | 1 2 { 3 4 5 6 7 6 8 -     ",
"    . 9 0 0 0 . a b c { d e f g h h i -     ",
"    . j k l m . n o p q r s t u v v w -     ",
"    . x y z A . B C C C C C D E F G H -     ",
"    . x I J A . K L M M N O t P Q R S -     ",
"    . x T U V . f W X Y Z ` f  ...+.@.-     ",
"    . #.$.$.V . f %.&.*.*.=.f -.;.;.>.-     ",
"    . ,.'.'.).. f !.~.~.{.].f ^././.(.-     ",
"    . _.:.:.<.. f [.}.}.}.|.f 1.2.2.3.-     ",
"    . 4.5.6.7.. f 8.9.9.9.0.f a.b.c.d.-     ",
"    . e.f.g.h.. f i.j.k.l.m.f n.o.p.q.-     ",
"    . r.s.t.u.. v.w.x.y.z.A.f B.] C.D.-     ",
"    . E.F.G.H.. f I.J.K.L.M.f N.O.P.Q.-     ",
"    . R.S.S.T.. U.V.W.X.Y.Z.v.`. + +.+-     ",
"    . ++_._.@+. f #+$+%+&+*+f =+-+-+;+-     ",
"    >+. . . . ,+'+f f f f f   - - - - )+    ",
"                                            ",
"                                            ",
"                                            "};
