/* XPM */
static char * atlas_xpm[] = {
"22 22 313 2",
"  	c None",
". 	c #042431",
"+ 	c #003144",
"@ 	c #00293B",
"# 	c #002A3C",
"$ 	c #012F40",
"% 	c #000F17",
"& 	c #3D1B0B",
"* 	c #623218",
"= 	c #5C2910",
"- 	c #5C2911",
"; 	c #622E15",
"> 	c #331308",
", 	c #242015",
"' 	c #625234",
") 	c #5D482A",
"! 	c #5C482B",
"~ 	c #62502F",
"{ 	c #47361D",
"] 	c #010D11",
"^ 	c #0A6D94",
"/ 	c #1A5064",
"( 	c #325F70",
"_ 	c #2F5C6E",
": 	c #0C5A75",
"< 	c #00455E",
"[ 	c #C95A26",
"} 	c #9A5735",
"| 	c #8F5D45",
"1 	c #9A5130",
"2 	c #B2411A",
"3 	c #A08354",
"4 	c #B09462",
"5 	c #8B7A5D",
"6 	c #907D60",
"7 	c #897450",
"8 	c #DBA557",
"9 	c #034A69",
"0 	c #969493",
"a 	c #C9C1BE",
"b 	c #D7D0CD",
"c 	c #435B63",
"d 	c #00384E",
"e 	c #9B3C10",
"f 	c #747474",
"g 	c #BFC9CE",
"h 	c #BFCACF",
"i 	c #737071",
"j 	c #892806",
"k 	c #917142",
"l 	c #746D61",
"m 	c #BCCAD0",
"n 	c #B9BDC3",
"o 	c #7C858E",
"p 	c #9A7034",
"q 	c #117197",
"r 	c #C3D7E0",
"s 	c #989999",
"t 	c #BBBABB",
"u 	c #496873",
"v 	c #00364C",
"w 	c #88807C",
"x 	c #AAACAD",
"y 	c #AAACAE",
"z 	c #877C79",
"A 	c #8E6F41",
"B 	c #877E6F",
"C 	c #AFB8BA",
"D 	c #9D9E9E",
"E 	c #8D9396",
"F 	c #9E7336",
"G 	c #014C6B",
"H 	c #92979A",
"I 	c #B6B6B6",
"J 	c #486772",
"K 	c #867E7A",
"L 	c #A5A7A8",
"M 	c #A6A8A9",
"N 	c #857A77",
"O 	c #867D6E",
"P 	c #AAB4B6",
"Q 	c #98999A",
"R 	c #8B9194",
"S 	c #004664",
"T 	c #929698",
"U 	c #CFCFCF",
"V 	c #DDDDDD",
"W 	c #45636E",
"X 	c #D5D6D7",
"Y 	c #827969",
"Z 	c #D1DCDD",
"` 	c #CFCFD0",
" .	c #909699",
"..	c #9C7235",
"+.	c #004563",
"@.	c #999EA0",
"#.	c #FFFFFF",
"$.	c #415F6A",
"%.	c #9A3B0F",
"&.	c #882705",
"*.	c #7C7364",
"=.	c #F9FFFF",
"-.	c #969C9F",
";.	c #9B7033",
">.	c #989D9F",
",.	c #FEFFFF",
"'.	c #42606B",
").	c #862503",
"!.	c #9A7745",
"~.	c #E1D7B9",
"{.	c #F1FEFF",
"].	c #959B9E",
"^.	c #00415F",
"/.	c #A3A4A4",
"(.	c #47616A",
"_.	c #00354B",
":.	c #96380D",
"<.	c #858280",
"[.	c #837E7D",
"}.	c #842403",
"|.	c #907041",
"1.	c #999180",
"2.	c #979FA5",
"3.	c #966B30",
"4.	c #075B7D",
"5.	c #3C4D54",
"6.	c #656E72",
"7.	c #646E72",
"8.	c #1A4757",
"9.	c #004159",
"0.	c #B44E1E",
"a.	c #674A3C",
"b.	c #786E69",
"c.	c #684639",
"d.	c #A03813",
"e.	c #9A7C4D",
"f.	c #756449",
"g.	c #73746E",
"h.	c #78756F",
"i.	c #5B564D",
"j.	c #BB8B47",
"k.	c #0E79A2",
"l.	c #0274A0",
"m.	c #00658F",
"n.	c #006691",
"o.	c #047BA7",
"p.	c #00425A",
"q.	c #CB5D2A",
"r.	c #F37A3C",
"s.	c #DC632B",
"t.	c #DC642C",
"u.	c #F47336",
"v.	c #B4441D",
"w.	c #987D51",
"x.	c #FAD486",
"y.	c #DDAC67",
"z.	c #DCAC68",
"A.	c #EDBD72",
"B.	c #EAB361",
"C.	c #0D759E",
"D.	c #0E86B4",
"E.	c #0E83B0",
"F.	c #0F84B2",
"G.	c #0982AF",
"H.	c #004057",
"I.	c #C65A28",
"J.	c #FF8747",
"K.	c #FF8144",
"L.	c #FF8245",
"M.	c #FF8041",
"N.	c #AF411B",
"O.	c #957A4F",
"P.	c #FFDC8E",
"Q.	c #FFD085",
"R.	c #FFD086",
"S.	c #FFD384",
"T.	c #E5AE5E",
"U.	c #0E85B2",
"V.	c #0F86B4",
"W.	c #0F85B4",
"X.	c #0981AD",
"Y.	c #FF8546",
"Z.	c #FF8345",
"`.	c #FF8446",
" +	c #FF7E40",
".+	c #FFDA8C",
"++	c #FFD286",
"@+	c #FFD489",
"#+	c #FFD183",
"$+	c #0E79A3",
"%+	c #0780AE",
"&+	c #005D81",
"*+	c #00668E",
"=+	c #0786B4",
"-+	c #004058",
";+	c #CA5C2A",
">+	c #FF8644",
",+	c #CB5E2A",
"'+	c #CB5F2B",
")+	c #FF7F3E",
"!+	c #B2431D",
"~+	c #957B50",
"{+	c #FFE391",
"]+	c #D4A766",
"^+	c #C69C5F",
"/+	c #FFCE7E",
"(+	c #ECB462",
"_+	c #076D95",
":+	c #244C5B",
"<+	c #727071",
"[+	c #5E6164",
"}+	c #09516C",
"|+	c #004660",
"1+	c #CB5A26",
"2+	c #8D4F30",
"3+	c #656A6E",
"4+	c #656B6E",
"5+	c #8D492B",
"6+	c #B54219",
"7+	c #A28555",
"8+	c #A78B5A",
"9+	c #5E6062",
"0+	c #6D6F72",
"a+	c #DDA656",
"b+	c #0B475F",
"c+	c #7B7573",
"d+	c #394343",
"e+	c #626665",
"f+	c #58656B",
"g+	c #003143",
"h+	c #863814",
"i+	c #6B7074",
"j+	c #465558",
"k+	c #475659",
"l+	c #6B6F72",
"m+	c #79280B",
"n+	c #806238",
"o+	c #72706B",
"p+	c #546166",
"q+	c #364344",
"r+	c #666F78",
"s+	c #896838",
"t+	c #0F465B",
"u+	c #7E7877",
"v+	c #1D2D2D",
"w+	c #4C5454",
"x+	c #657074",
"y+	c #002D3D",
"z+	c #7C3413",
"A+	c #71787C",
"B+	c #314041",
"C+	c #324142",
"D+	c #71777C",
"E+	c #70250B",
"F+	c #785A33",
"G+	c #777774",
"H+	c #455154",
"I+	c #1D2E2E",
"J+	c #6A737C",
"K+	c #816439",
"L+	c #046389",
"M+	c #3A4F58",
"N+	c #7D7572",
"O+	c #736C6B",
"P+	c #154C60",
"Q+	c #C25421",
"R+	c #784E3A",
"S+	c #63737B",
"T+	c #63747C",
"U+	c #784936",
"V+	c #AD3D16",
"W+	c #A18252",
"X+	c #907954",
"Y+	c #5D656E",
"Z+	c #696F76",
"`+	c #645C4E",
" @	c #CD994E",
".@	c #000507",
"+@	c #0F82AE",
"@@	c #057EAD",
"#@	c #0B5F7F",
"$@	c #066286",
"%@	c #0589BA",
"&@	c #00435C",
"*@	c #D6622C",
"=@	c #FF8743",
"-@	c #BD5D2F",
";@	c #BE5E30",
">@	c #FF7F3C",
",@	c #BD471F",
"'@	c #9B8054",
")@	c #FFEC95",
"!@	c #C69D62",
"~@	c #BA9661",
"{@	c #FDCC7B",
"]@	c #FCC068",
"^@	c #03202B",
"/@	c #053040",
"(@	c #053344",
"_@	c #053244",
":@	c #032B39",
"<@	c #000E14",
"[@	c #371809",
"}@	c #582E18",
"|@	c #64321A",
"1@	c #582B16",
"2@	c #2F1006",
"3@	c #211D13",
"4@	c #55492E",
"5@	c #634F33",
"6@	c #655134",
"7@	c #5A4B2E",
"8@	c #3E2F18",
"                                            ",
"    . + @ # $ % & * = - ; > , ' ) ! ~ {     ",
"  ] ^ / ( _ : < [ } | | 1 2 3 4 5 6 7 8     ",
"    9 0 a b c d e f g h i j k l m n o p     ",
"    q r s t u v e w x y z j A B C D E F     ",
"    G H s I J v e K L M N j A O P Q R F     ",
"    S T U V W v e K X X N j A Y Z `  ...    ",
"    +.@.#.#.$.v %.K #.#.N &.A *.=.#.-.;.    ",
"    +.>.#.,.'.v %.K #.#.N ).!.~.{.#.].;.    ",
"    ^./.#.#.(._.:.<.#.#.[.}.|.1.,.#.2.3.    ",
"    4.5.6.7.8.9.0.a.b.b.c.d.e.f.g.h.i.j.    ",
"    k.l.m.n.o.p.q.r.s.t.u.v.w.x.y.z.A.B.    ",
"    C.D.E.F.G.H.I.J.K.L.M.N.O.P.Q.R.S.T.    ",
"    C.U.V.W.X.H.I.Y.Z.`. +N.O..+++@+#+T.    ",
"    $+%+&+*+=+-+;+>+,+'+)+!+~+{+]+^+/+(+    ",
"    _+:+<+[+}+|+1+2+3+4+5+6+7+8+9+0+f.a+    ",
"    b+c+d+e+f+g+h+i+j+k+l+m+n+o+p+q+r+s+    ",
"    t+u+v+w+x+y+z+A+B+C+D+E+F+G+H+I+J+K+    ",
"    L+M+N+O+P+< Q+R+S+T+U+V+W+X+Y+Z+`+ @    ",
"  .@+@@@#@$@%@&@*@=@-@;@>@,@'@)@!@~@{@]@    ",
"    ^@/@(@_@:@<@[@}@|@|@1@2@3@4@5@6@7@8@    ",
"                                            "};
