/* XPM */
static char * C:\Users\frank\Documents\GitHub\DSI_Studio\icons\conn_xpm[] = {
"22 22 325 2",
"  	c None",
". 	c #313333",
"+ 	c #555C57",
"@ 	c #5B6D5D",
"# 	c #5B695D",
"$ 	c #6D706E",
"% 	c #959595",
"& 	c #A9A9A9",
"* 	c #A9AAAA",
"= 	c #9C9C9C",
"- 	c #707272",
"; 	c #5E6860",
"> 	c #5A6C5C",
", 	c #5D685F",
"' 	c #757877",
") 	c #9D9D9D",
"! 	c #AAAAAA",
"~ 	c #868687",
"{ 	c #3E423F",
"] 	c #607F5E",
"^ 	c #62A457",
"/ 	c #63985B",
"( 	c #879687",
"_ 	c #D2D1D3",
": 	c #F3F3F3",
"< 	c #F4F4F4",
"[ 	c #DDDDDD",
"} 	c #909791",
"| 	c #679262",
"1 	c #61A556",
"2 	c #669361",
"3 	c #979F98",
"4 	c #DEDDDF",
"5 	c #F5F5F5",
"6 	c #C2C2C3",
"7 	c #626263",
"8 	c #3C433D",
"9 	c #56844B",
"0 	c #59B738",
"a 	c #59A540",
"b 	c #80977C",
"c 	c #DAD9DB",
"d 	c #FFFFFF",
"e 	c #FFFEFF",
"f 	c #E5E5E5",
"g 	c #8A948A",
"h 	c #5A9849",
"i 	c #5BB938",
"j 	c #5A9B47",
"k 	c #919D90",
"l 	c #E5E4E6",
"m 	c #D0D0D1",
"n 	c #6A6A6B",
"o 	c #4A4C4B",
"p 	c #798B73",
"q 	c #85AF70",
"r 	c #83A473",
"s 	c #959E93",
"t 	c #C9C8CA",
"u 	c #E0DFE1",
"v 	c #DFDFE1",
"w 	c #E0DFE0",
"x 	c #D0CFD0",
"y 	c #999C99",
"z 	c #829C77",
"A 	c #86B06F",
"B 	c #829E77",
"C 	c #9DA19E",
"D 	c #CFCED0",
"E 	c #E1E0E1",
"F 	c #E1E1E2",
"G 	c #BCBCBD",
"H 	c #6E6E6E",
"I 	c #C3C3C4",
"J 	c #D6D8D5",
"K 	c #D6D6D5",
"L 	c #C6C5C6",
"M 	c #9E9F9F",
"N 	c #8B968C",
"O 	c #8B9F8C",
"P 	c #8C978C",
"Q 	c #9B9C9B",
"R 	c #C7C6C7",
"S 	c #D5D5D4",
"T 	c #D5D7D4",
"U 	c #D5D6D5",
"V 	c #C5C5C6",
"W 	c #9EA19F",
"X 	c #8C9B8C",
"Y 	c #8EA18E",
"Z 	c #808781",
"` 	c #4A4B4C",
" .	c #818181",
"..	c #E5E5E6",
"+.	c #F9F9FA",
"@.	c #F9F8F9",
"#.	c #D8D7D8",
"$.	c #808881",
"%.	c #55854E",
"&.	c #59A549",
"*.	c #568A4E",
"=.	c #7C857B",
"-.	c #DBDBDB",
";.	c #F7F7F7",
">.	c #F8F7F8",
",.	c #F9F9F9",
"'.	c #DBDADB",
").	c #859884",
"!.	c #59974E",
"~.	c #5AA54C",
"{.	c #5D8059",
"].	c #444844",
"^.	c #E7E7E7",
"/.	c #F8F8F7",
"(.	c #D5D3D5",
"_.	c #538E3F",
":.	c #5FB93A",
"<.	c #599744",
"[.	c #818B7E",
"}.	c #DCDCDD",
"|.	c #E0E0E1",
"1.	c #90A78B",
"2.	c #62AD47",
"3.	c #63BC40",
"4.	c #69935D",
"5.	c #4F554F",
"6.	c #7A7A7B",
"7.	c #CACACC",
"8.	c #D6D8D9",
"9.	c #D7D8D9",
"0.	c #C6C6C7",
"a.	c #9B9C9A",
"b.	c #899B80",
"c.	c #91B07F",
"d.	c #90A387",
"e.	c #A3A6A2",
"f.	c #D2D2D3",
"g.	c #E0E0E2",
"h.	c #E0E1E3",
"i.	c #E3E4E5",
"j.	c #D9D9DA",
"k.	c #B5BBB3",
"l.	c #A2BB95",
"m.	c #A4C394",
"n.	c #A0AC9B",
"o.	c #686968",
"p.	c #515356",
"q.	c #7E8B9A",
"r.	c #889FB8",
"s.	c #8C9BAB",
"t.	c #A7AAAD",
"u.	c #D0D0D0",
"v.	c #DEDEDE",
"w.	c #DFDFDE",
"x.	c #E0E0DF",
"y.	c #D7D7D7",
"z.	c #B7B8BA",
"A.	c #A0ADBC",
"B.	c #98B0C8",
"C.	c #A3B3C3",
"D.	c #BFC2C5",
"E.	c #DDDCDC",
"F.	c #E8E8E7",
"G.	c #E9E9E8",
"H.	c #D6D6D7",
"I.	c #818182",
"J.	c #384049",
"K.	c #5A82A6",
"L.	c #70AEDF",
"M.	c #6C97BD",
"N.	c #99A2AC",
"O.	c #E2E1E0",
"P.	c #EAEAEA",
"Q.	c #B3B9C0",
"R.	c #7FA6CA",
"S.	c #74B0E1",
"T.	c #7AA6CD",
"U.	c #A5B0BB",
"V.	c #DFDEDD",
"W.	c #F2F1F2",
"X.	c #E2E2E2",
"Y.	c #8B8B8C",
"Z.	c #313840",
"`.	c #4D7290",
" +	c #69A1C8",
".+	c #557B99",
"++	c #7A818A",
"@+	c #D5D4D4",
"#+	c #F2F2F1",
"$+	c #F3F3F2",
"%+	c #E0E0E0",
"&+	c #989DA3",
"*+	c #688BA8",
"=+	c #6BA2C9",
"-+	c #5A82A2",
";+	c #6C747E",
">+	c #C0BFBE",
",+	c #EBEBEB",
"'+	c #ECECEB",
")+	c #E1E1E1",
"!+	c #909191",
"~+	c #4A4A4C",
"{+	c #656C73",
"]+	c #6E7C86",
"^+	c #666C73",
"/+	c #7A797B",
"(+	c #ADACAD",
"_+	c #BEBFBF",
":+	c #BEBFC0",
"<+	c #BEBEBE",
"[+	c #AEAEAE",
"}+	c #7B7A7C",
"|+	c #696F75",
"1+	c #6F7C86",
"2+	c #666D75",
"3+	c #6D6D6F",
"4+	c #A1A0A0",
"5+	c #BFBFBF",
"6+	c #BFC0C1",
"7+	c #B9B9B9",
"8+	c #7C7C7C",
"9+	c #8B8B8B",
"0+	c #C4C3C3",
"a+	c #C6C4C4",
"b+	c #C5C5C5",
"c+	c #A09F9F",
"d+	c #636569",
"e+	c #5D6A78",
"f+	c #647587",
"g+	c #575F68",
"h+	c #676768",
"i+	c #AFAEAE",
"j+	c #C5C4C5",
"k+	c #C5C4C4",
"l+	c #C7C7C6",
"m+	c #B7B7B7",
"n+	c #7A7B7C",
"o+	c #5C646F",
"p+	c #657788",
"q+	c #5D6874",
"r+	c #414347",
"s+	c #3C3C3D",
"t+	c #A3A3A4",
"u+	c #E6E6E6",
"v+	c #A9A9A8",
"w+	c #4D5A68",
"x+	c #5480A7",
"y+	c #669DCB",
"z+	c #43617F",
"A+	c #525459",
"B+	c #C3C2C2",
"C+	c #E9E9E9",
"D+	c #D0CFCE",
"E+	c #6F747B",
"F+	c #496B8A",
"G+	c #517A9F",
"H+	c #2F3B47",
"I+	c #3E3E3E",
"J+	c #A6A6A6",
"K+	c #E3E3E3",
"L+	c #E4E4E4",
"M+	c #A6A5A4",
"N+	c #4B5967",
"O+	c #5887AC",
"P+	c #6CA6D1",
"Q+	c #446380",
"R+	c #53545A",
"S+	c #C0C0C0",
"T+	c #CFCECE",
"U+	c #72777E",
"V+	c #4B6F8E",
"W+	c #6EAAD5",
"X+	c #5482A8",
"Y+	c #313C49",
"Z+	c #333434",
"`+	c #828282",
" @	c #ADADAD",
".@	c #818081",
"+@	c #404247",
"@@	c #3F4E5A",
"#@	c #495C6B",
"$@	c #38404A",
"%@	c #4B4B4C",
"&@	c #989898",
"*@	c #AFAFAF",
"=@	c #AFAFB0",
"-@	c #A0A0A0",
";@	c #5E5E61",
">@	c #39444E",
",@	c #485D6C",
"'@	c #3D4B58",
")@	c #2D2F32",
"!@	c #1A1A1A",
"~@	c #454545",
"{@	c #5A5A5A",
"]@	c #666666",
"^@	c #5D5C5D",
"/@	c #525252",
"(@	c #575757",
"_@	c #606061",
":@	c #686868",
"<@	c #747575",
"[@	c #858585",
"}@	c #838383",
"|@	c #727273",
"1@	c #676767",
"2@	c #545454",
"3@	c #494848",
"4@	c #494949",
"5@	c #464646",
"6@	c #3E3F3E",
"7@	c #707070",
"8@	c #727272",
"9@	c #797979",
"0@	c #818180",
"a@	c #898989",
"b@	c #929292",
"c@	c #989999",
"d@	c #969696",
"e@	c #8E8E8E",
"f@	c #7D7D7D",
"g@	c #757575",
"h@	c #727171",
"i@	c #717171",
"j@	c #727271",
"                                            ",
"                                            ",
"  . + @ # $ % & * & = - ; > , ' ) ! * ~     ",
"  { ] ^ / ( _ : < : [ } | 1 2 3 4 5 < 6 7   ",
"  8 9 0 a b c d d e f g h i j k l d d m n   ",
"  o p q r s t u v w x y z A B C D E F G 7   ",
"  H I J K L M N O P Q R S T U V W X Y Z `   ",
"   ...+.@.#.$.%.&.*.=.-.;.>.,.'.).!.~.{.].  ",
"  ~ ^././.(.=._.:.<.[.}.;.;.,.|.1.2.3.4.5.  ",
"  6.7.8.9.0.a.b.c.d.e.f.g.h.i.j.k.l.m.n.o.  ",
"  p.q.r.s.t.u.v.w.x.y.z.A.B.C.D.E.F.G.H.I.  ",
"  J.K.L.M.N.O.>.;.>.P.Q.R.S.T.U.V.: W.X.Y.  ",
"  Z.`. +.+++@+#+#+$+%+&+*+=+-+;+>+,+'+)+!+  ",
"  ~+{+]+^+/+(+_+:+<+[+}+|+1+2+3+4+5+6+7+8+  ",
"  9+0+a+b+c+d+e+f+g+h+i+j+k+l+m+n+o+p+q+r+  ",
"s+t+f ^.u+v+w+x+y+z+A+B+^.^.C+D+E+F+y+G+H+  ",
"I+J+K+L+K+M+N+O+P+Q+R+S+K+L+u+T+U+V+W+X+Y+  ",
"Z+`+ @[+ @.@+@@@#@$@%@&@*@*@=@-@;@>@,@'@)@!@",
"~@{@]@]@]@^@/@(@_@:@<@[@}@6.|@1@2@3@4@4@5@6@",
"  7@7@7@7@8@9@0@a@b@c@d@e@[@f@g@8@h@i@j@i@  ",
"                                            ",
"                                            "};
