/* XPM */
static char * console_xpm[] = {
"16 16 43 1",
" 	c None",
".	c #000000",
"+	c #272727",
"@	c #7E7E7E",
"#	c #2C2C2C",
"$	c #212121",
"%	c #C0C0C0",
"&	c #E2E2E2",
"*	c #A9A9A9",
"=	c #484848",
"-	c #060606",
";	c #2D2D2D",
">	c #A5A5A5",
",	c #FFFFFF",
"'	c #929292",
")	c #0A0A0A",
"!	c #626262",
"~	c #ADADAD",
"{	c #CBCBCB",
"]	c #A6A6A6",
"^	c #3E3E3E",
"/	c #333333",
"(	c #CFCFCF",
"_	c #919191",
":	c #101010",
"<	c #565656",
"[	c #090909",
"}	c #2B2B2B",
"|	c #474747",
"1	c #525252",
"2	c #242424",
"3	c #0F0F0F",
"4	c #E6E6E6",
"5	c #181818",
"6	c #727272",
"7	c #BDBDBD",
"8	c #171717",
"9	c #DCDCDC",
"0	c #616161",
"a	c #020202",
"b	c #0B0B0B",
"c	c #010101",
"d	c #050505",
"                ",
"                ",
"                ",
" .............. ",
" .............. ",
" +@#........... ",
" $%&*=-........ ",
" ..;>,'........ ",
" )!~{]^........ ",
" /(_;..:<[}|[12 ",
" [3....}4567890 ",
" ......abc-[cbd ",
" .............. ",
"                ",
"                ",
"                "};
