/* XPM */
static char * delete_xpm[] = {
"16 16 103 2",
"  	c None",
". 	c #F32028",
"+ 	c #ED1E26",
"@ 	c #EE2027",
"# 	c #F22127",
"$ 	c #FA242C",
"% 	c #F62027",
"& 	c #FA2129",
"* 	c #FD222A",
"= 	c #F42128",
"- 	c #EB2128",
"; 	c #EC1F26",
"> 	c #FC222A",
", 	c #F92128",
"' 	c #F6222B",
") 	c #F52127",
"! 	c #FF252C",
"~ 	c #FF242C",
"{ 	c #F52128",
"] 	c #E92027",
"^ 	c #EA2027",
"/ 	c #F42027",
"( 	c #FF242B",
"_ 	c #FF262D",
": 	c #F6232A",
"< 	c #F52126",
"[ 	c #FF232B",
"} 	c #F8252C",
"| 	c #F7222A",
"1 	c #FF232A",
"2 	c #ED1F26",
"3 	c #EB2027",
"4 	c #F7292F",
"5 	c #F72028",
"6 	c #F6262D",
"7 	c #F42229",
"8 	c #F92429",
"9 	c #FF2229",
"0 	c #F92930",
"a 	c #F62129",
"b 	c #F52028",
"c 	c #F9232B",
"d 	c #F9292F",
"e 	c #F52027",
"f 	c #F42127",
"g 	c #FF232C",
"h 	c #F5292F",
"i 	c #F42028",
"j 	c #F61F27",
"k 	c #EC2027",
"l 	c #F21F26",
"m 	c #EF262C",
"n 	c #EC1E26",
"o 	c #EB2129",
"p 	c #F9232A",
"q 	c #F82027",
"r 	c #EC2229",
"s 	c #EA1F26",
"t 	c #EB2026",
"u 	c #ED232A",
"v 	c #EB1F26",
"w 	c #F8222A",
"x 	c #EA2128",
"y 	c #EE2229",
"z 	c #EE2026",
"A 	c #F82A31",
"B 	c #F11F26",
"C 	c #ED2830",
"D 	c #F72129",
"E 	c #FE242B",
"F 	c #F32128",
"G 	c #F62730",
"H 	c #F82029",
"I 	c #F9222A",
"J 	c #F4242C",
"K 	c #F41F26",
"L 	c #FE222A",
"M 	c #F32F38",
"N 	c #F72128",
"O 	c #F9222B",
"P 	c #FE2128",
"Q 	c #F5242B",
"R 	c #FF252D",
"S 	c #F62028",
"T 	c #F22026",
"U 	c #FF222A",
"V 	c #EC2128",
"W 	c #F4232C",
"X 	c #F62B32",
"Y 	c #FF252E",
"Z 	c #F32027",
"` 	c #FE2129",
" .	c #FF262E",
"..	c #F72A30",
"+.	c #FB222A",
"@.	c #FC232A",
"#.	c #FA232C",
"$.	c #F62931",
"%.	c #FB272F",
"&.	c #F3272D",
"*.	c #EF2229",
"=.	c #F32930",
"-.	c #F93037",
"            . + @ # $           ",
"      % & * = - ; = > , '       ",
"    ) ! ~ { - ] ^ - / ( _ :     ",
"  < [ }   | 1 2 3 1 4   5 ~ 6   ",
"  7 [       8 1 9 0       9 a   ",
"  [ b :       c d       e f g h ",
"@ i - 9 :             j 1 k l m ",
"n o ] k [ p         q 1 r s t u ",
"n k v 3 1 d         w ( 2 v x y ",
"z = v 9 A             w 1 k B C ",
"D E F G       H I       J K L M ",
"  b [       N 1 [ O       P Q   ",
"  : R S   T U V k [ W   / _ X   ",
"    : Y L / k ^ ^ - Z `  ...    ",
"      } +.@.l v 3 B > #.$.      ",
"          %.&.u *.=.-.          "};
