/* XPM */
static char * delete_xpm[] = {
"16 16 33 1",
" 	c None",
".	c #DF0029",
"+	c #DB0028",
"@	c #DC0029",
"#	c #B70022",
"$	c #C70025",
"%	c #9A001C",
"&	c #890019",
"*	c #DD0029",
"=	c #7B0017",
"-	c #C80025",
";	c #710015",
">	c #DE0029",
",	c #D70028",
"'	c #4C000E",
")	c #000000",
"!	c #AF0020",
"~	c #C90025",
"{	c #1B0005",
"]	c #D80028",
"^	c #B80022",
"/	c #D60027",
"(	c #D50027",
"_	c #44000D",
":	c #B20021",
"<	c #140004",
"[	c #C30024",
"}	c #CC0025",
"|	c #DA0028",
"1	c #280007",
"2	c #A9001F",
"3	c #95001B",
"4	c #8F001A",
"                ",
" .+             ",
" @.#            ",
"  $.%      ..   ",
"   $.&    .*=   ",
"    -.;  >,')   ",
"     -,!>~{     ",
"      ].^)      ",
"     *./(_      ",
"    ..:<[/      ",
"   ..:)  -,     ",
"  ..})    -,    ",
"  .|1)     #.2  ",
" |.3)       4,  ",
"   )            ",
"                "};
