/* XPM */
static char * C:\frank\myprog\project\DSI Studio\src\icons\down_xpm[] = {
"16 16 131 2",
"  	c None",
". 	c #FFFFFF",
"+ 	c #B1D8B1",
"@ 	c #76BB76",
"# 	c #67B367",
"$ 	c #5BAD5B",
"% 	c #54A954",
"& 	c #4FA74F",
"* 	c #4AA44A",
"= 	c #4BA54B",
"- 	c #46A346",
"; 	c #3FA03F",
"> 	c #3B9E3B",
", 	c #319831",
"' 	c #238C23",
") 	c #8ABB8A",
"! 	c #77BB77",
"~ 	c #9DCF9D",
"{ 	c #8CC68C",
"] 	c #79BC79",
"^ 	c #70B870",
"/ 	c #69B469",
"( 	c #65B265",
"_ 	c #62B062",
": 	c #5DAE5D",
"< 	c #56AB56",
"[ 	c #4EA74E",
"} 	c #41A141",
"| 	c #2F942F",
"1 	c #197719",
"2 	c #6BB56B",
"3 	c #8DC68D",
"4 	c #80C080",
"5 	c #6FB76F",
"6 	c #67B267",
"7 	c #60AE60",
"8 	c #4CA54C",
"9 	c #49A449",
"0 	c #3A9D3A",
"a 	c #309530",
"b 	c #1E7A1E",
"c 	c #5EAF5E",
"d 	c #7ABD7A",
"e 	c #63B063",
"f 	c #5AAB5A",
"g 	c #52A652",
"h 	c #339933",
"i 	c #309930",
"j 	c #309830",
"k 	c #237D23",
"l 	c #53A953",
"m 	c #6CB66C",
"n 	c #68B468",
"o 	c #5EAD5E",
"p 	c #54A854",
"q 	c #4CA34C",
"r 	c #299729",
"s 	c #2B982B",
"t 	c #2D952D",
"u 	c #237E23",
"v 	c #63B163",
"w 	c #61AF61",
"x 	c #59AB59",
"y 	c #51A651",
"z 	c #48A248",
"A 	c #269926",
"B 	c #2A972A",
"C 	c #217E21",
"D 	c #45A245",
"E 	c #5AAC5A",
"F 	c #259A25",
"G 	c #1D7F1D",
"H 	c #3F9F3F",
"I 	c #19AC19",
"J 	c #1F9E1F",
"K 	c #188118",
"L 	c #359A35",
"M 	c #3D9F3D",
"N 	c #18A218",
"O 	c #128212",
"P 	c #2C962C",
"Q 	c #42A042",
"R 	c #1AB31A",
"S 	c #14AF14",
"T 	c #0FA30F",
"U 	c #0B800B",
"V 	c #229122",
"W 	c #389C38",
"X 	c #43A243",
"Y 	c #48A448",
"Z 	c #21B521",
"` 	c #18B618",
" .	c #0EB10E",
"..	c #08A308",
"+.	c #057E05",
"@.	c #198D19",
"#.	c #379C37",
"$.	c #3C9F3C",
"%.	c #39A139",
"&.	c #24AF24",
"*.	c #1CB11C",
"=.	c #13B213",
"-.	c #0AAD0A",
";.	c #049F04",
">.	c #027902",
",.	c #118311",
"'.	c #1F8C1F",
").	c #2A912A",
"!.	c #2F932F",
"~.	c #2E942E",
"{.	c #299A29",
"].	c #239E23",
"^.	c #1CA31C",
"/.	c #15A415",
"(.	c #0DA40D",
"_.	c #059F05",
":.	c #019101",
"<.	c #006F00",
"[.	c #85B785",
"}.	c #0F6F0F",
"|.	c #167416",
"1.	c #1A761A",
"2.	c #187818",
"3.	c #177917",
"4.	c #137D13",
"5.	c #0D7F0D",
"6.	c #0A7E0A",
"7.	c #077C07",
"8.	c #027B02",
"9.	c #007000",
"0.	c #7FB07F",
"  . . . . . . . . . . . . . .   ",
". + @ # $ % & * = - ; > , ' ) . ",
". ! ~ { ] ^ / ( _ : < [ } | 1 . ",
". 2 3 4 5 6 7 . . 8 9 } 0 a b . ",
". c d ^ e f g . . 8 h i j | k . ",
". l m n o p q . . h i r s t u . ",
". & v w x y z . . i i r A B C . ",
". D E . . z z . . r r . . F G . ",
". H l . . . z . . I . . . J K . ",
". L = M . . . . . . . . I N O . ",
". P Q M M . . . . . . R S T U . ",
". V W X Y I . . . . Z `  ...+.. ",
". @.P #.M $.%.. . &.*.=.-.;.>.. ",
". ,.'.).!.~.P {.].^./.(._.:.<.. ",
". [.}.|.1.1.2.3.4.5.6.7.8.9.0.. ",
"  . . . . . . . . . . . . . .   "};
