/* XPM */
static char * C:\Users\frank\Documents\GitHub\DSI_Studio\fullscreen_xpm[] = {
"22 22 341 2",
"  	c None",
". 	c #0E0E6A",
"+ 	c #383B84",
"@ 	c #393D87",
"# 	c #353A86",
"$ 	c #333A86",
"% 	c #323886",
"& 	c #303886",
"* 	c #2E3786",
"= 	c #2C3686",
"- 	c #2B3586",
"; 	c #293486",
"> 	c #263386",
", 	c #253286",
"' 	c #233286",
") 	c #213086",
"! 	c #1F2F86",
"~ 	c #1D2E86",
"{ 	c #1C2E86",
"] 	c #1A2D86",
"^ 	c #182D87",
"/ 	c #162A85",
"( 	c #050A69",
"_ 	c #3B3F86",
": 	c #B0D6F4",
"< 	c #A2D5FD",
"[ 	c #9CCDFB",
"} 	c #98CBFB",
"| 	c #92C8FB",
"1 	c #8DC5FB",
"2 	c #89C3FB",
"3 	c #85C0FB",
"4 	c #80BDFB",
"5 	c #7BBAFB",
"6 	c #77B7FB",
"7 	c #72B5FB",
"8 	c #6DB2FB",
"9 	c #68AFFB",
"0 	c #64ACFB",
"a 	c #5FA9FB",
"b 	c #5AA7FB",
"c 	c #55A3FB",
"d 	c #52A4FD",
"e 	c #4B9FF8",
"f 	c #152E8C",
"g 	c #3F438B",
"h 	c #8BC4F9",
"i 	c #56A6FB",
"j 	c #53A0F8",
"k 	c #519FF8",
"l 	c #4D9CF8",
"m 	c #4A9CF8",
"n 	c #489AF8",
"o 	c #4598F8",
"p 	c #4397F8",
"q 	c #4094F8",
"r 	c #3D93F8",
"s 	c #3A91F8",
"t 	c #368FF8",
"u 	c #338DF8",
"v 	c #318BF8",
"w 	c #2E89F8",
"x 	c #2C88F8",
"y 	c #2885F8",
"z 	c #2786FA",
"A 	c #3895FC",
"B 	c #153292",
"C 	c #3D4490",
"D 	c #6999E2",
"E 	c #608BDB",
"F 	c #74A2E8",
"G 	c #72A3EE",
"H 	c #74A6F0",
"I 	c #73A2EA",
"J 	c #6F96DD",
"K 	c #6F95DD",
"L 	c #6E96DD",
"M 	c #71A2E8",
"N 	c #72A7EF",
"O 	c #72A4ED",
"P 	c #75A3E9",
"Q 	c #6B93DC",
"R 	c #397FE4",
"S 	c #0F2E95",
"T 	c #333E91",
"U 	c #7EA5E1",
"V 	c #E5E9F4",
"W 	c #F7B8AD",
"X 	c #E69379",
"Y 	c #DA8260",
"Z 	c #DE928A",
"` 	c #FFF9F5",
" .	c #FFFFFF",
"..	c #FFFFFC",
"+.	c #FFFFFD",
"@.	c #FFFFFE",
"#.	c #FFFEFA",
"$.	c #F49B94",
"%.	c #F07A5C",
"&.	c #EF8F75",
"*.	c #F2AAA1",
"=.	c #F3F1F4",
"-.	c #5B94EA",
";.	c #042896",
">.	c #313F93",
",.	c #7AA6E5",
"'.	c #DEDAEE",
").	c #E67F5E",
"!.	c #F0980E",
"~.	c #D06122",
"{.	c #E6BBC0",
"].	c #FEFEFE",
"^.	c #FEFFFF",
"/.	c #F1C8CE",
"(.	c #DD5326",
"_.	c #F5950D",
":.	c #DD7F50",
"<.	c #EADEEB",
"[.	c #5796EE",
"}.	c #042A98",
"|.	c #2E4096",
"1.	c #77A4E5",
"2.	c #E1DFF0",
"3.	c #E76744",
"4.	c #DA5323",
"5.	c #F0CED4",
"6.	c #FDFDFD",
"7.	c #FAFAFB",
"8.	c #F9F9FB",
"9.	c #FBFFFF",
"0.	c #EDD2DB",
"a.	c #D36632",
"b.	c #CD622A",
"c.	c #EBE3EC",
"d.	c #5694EE",
"e.	c #022B9A",
"f.	c #2C4198",
"g.	c #74A3E5",
"h.	c #E2DDEA",
"i.	c #EA7777",
"j.	c #F1C0C7",
"k.	c #FEFEFF",
"l.	c #FDFDFE",
"m.	c #FCFCFD",
"n.	c #FAFAFC",
"o.	c #F8F8F9",
"p.	c #F6F6F8",
"q.	c #F8FFFF",
"r.	c #E5CDD5",
"s.	c #C36868",
"t.	c #EADFE3",
"u.	c #5493ED",
"v.	c #002D9C",
"w.	c #29429A",
"x.	c #709EE2",
"y.	c #E3E7F4",
"z.	c #FFFCF8",
"A.	c #FCFCFC",
"B.	c #FBFBFC",
"C.	c #F7F7F9",
"D.	c #F5F5F8",
"E.	c #F3F3F6",
"F.	c #F1F1F5",
"G.	c #F1F5FB",
"H.	c #F0EFF2",
"I.	c #EDEAEC",
"J.	c #518EE8",
"K.	c #002F9F",
"L.	c #28439D",
"M.	c #6D9CE1",
"N.	c #E4EAF6",
"O.	c #F1F1F4",
"P.	c #EFEFF4",
"Q.	c #ECECF1",
"R.	c #EFF0F3",
"S.	c #EDECEF",
"T.	c #4F8CE8",
"U.	c #002FA0",
"V.	c #25459F",
"W.	c #6A9BE1",
"X.	c #FBFBFD",
"Y.	c #F7F7FA",
"Z.	c #F1F1F6",
"`.	c #EEEEF4",
" +	c #ECECF2",
".+	c #E9E9F0",
"++	c #EAE9EE",
"@+	c #EAE8ED",
"#+	c #4D8CE9",
"$+	c #0030A3",
"%+	c #2346A2",
"&+	c #6798E1",
"*+	c #F4F4F6",
"=+	c #EEEEF3",
"-+	c #EBEBF1",
";+	c #E9E8EF",
">+	c #E7E9F0",
",+	c #E8F1F5",
"'+	c #E8E6EC",
")+	c #4B8AE8",
"!+	c #0032A5",
"~+	c #2047A4",
"{+	c #6599E4",
"]+	c #E1E0EC",
"^+	c #E4B1B2",
"/+	c #F5E6E9",
"(+	c #FAFBFC",
"_+	c #F8F8FA",
":+	c #F3F3F7",
"<+	c #F2F2F4",
"[+	c #E8E8EE",
"}+	c #E7ECF3",
"|+	c #E3E2EE",
"1+	c #DC9AA1",
"2+	c #E5D8DD",
"3+	c #498BEB",
"4+	c #0032A8",
"5+	c #1E48A6",
"6+	c #6399E5",
"7+	c #E0DEEC",
"8+	c #C65741",
"9+	c #D07360",
"0+	c #FCF8FC",
"a+	c #FCFFFF",
"b+	c #F9F9FA",
"c+	c #F2F2F6",
"d+	c #F0F0F5",
"e+	c #E8EDF4",
"f+	c #E2E8F9",
"g+	c #D5776E",
"h+	c #D84126",
"i+	c #E2D5DD",
"j+	c #478BED",
"k+	c #0033AA",
"l+	c #1B49A9",
"m+	c #6098E5",
"n+	c #DFD9EE",
"o+	c #DD8554",
"p+	c #E68100",
"q+	c #DF7B62",
"r+	c #F6EBF2",
"s+	c #F8FBFD",
"t+	c #F5F4F7",
"u+	c #F0F1F4",
"v+	c #EBEBF2",
"w+	c #E8E8EF",
"x+	c #E6E9EF",
"y+	c #E0E1EE",
"z+	c #CE7C68",
"A+	c #EE8103",
"B+	c #E2763C",
"C+	c #DBCDDD",
"D+	c #478AEC",
"E+	c #0035AC",
"F+	c #194AAB",
"G+	c #5D96E4",
"H+	c #E4E3F1",
"I+	c #E99386",
"J+	c #EC8844",
"K+	c #E55724",
"L+	c #E88081",
"M+	c #FDFCFB",
"N+	c #FAFBFB",
"O+	c #F7F5F5",
"P+	c #F4F2F4",
"Q+	c #F3F1F3",
"R+	c #F0EEF0",
"S+	c #EEEDF0",
"T+	c #EBEDF1",
"U+	c #C78187",
"V+	c #C65520",
"W+	c #E38E41",
"X+	c #D57A6C",
"Y+	c #E2D8E0",
"Z+	c #4A89EA",
"`+	c #0037AE",
" @	c #1A4DAF",
".@	c #558DE0",
"+@	c #CDD5EA",
"@@	c #E5E1ED",
"#@	c #D9CAE0",
"$@	c #DCD0E0",
"%@	c #DCCEDA",
"&@	c #DEDFEB",
"*@	c #DDE1EE",
"=@	c #DCDEED",
"-@	c #DADDEB",
";@	c #D9DBE9",
">@	c #D7D9E8",
",@	c #D5D9E8",
"'@	c #D3D5E4",
")@	c #CCC3D1",
"!@	c #C9C0D4",
"~@	c #C5B8D2",
"{@	c #CCC8DA",
"]@	c #D2D3E1",
"^@	c #407EE5",
"/@	c #0039B2",
"(@	c #1D50B0",
"_@	c #4B95EE",
":@	c #4186E4",
"<@	c #4188E7",
"[@	c #3E88E9",
"}@	c #3B86EA",
"|@	c #3985E8",
"1@	c #377FE4",
"2@	c #347DE4",
"3@	c #307CE5",
"4@	c #2E7AE4",
"5@	c #2C79E5",
"6@	c #2977E4",
"7@	c #2775E5",
"8@	c #2574E4",
"9@	c #2377E9",
"0@	c #2176EB",
"a@	c #1E74EA",
"b@	c #1C71E8",
"c@	c #196CE4",
"d@	c #096BEF",
"e@	c #0042B4",
"f@	c #06389E",
"g@	c #1953B4",
"h@	c #1652B8",
"i@	c #124FB7",
"j@	c #1150B7",
"k@	c #104EB7",
"l@	c #0F4EB7",
"m@	c #0D4DB7",
"n@	c #0C4CB7",
"o@	c #0B4BB7",
"p@	c #094AB7",
"q@	c #074AB7",
"r@	c #0649B7",
"s@	c #0547B7",
"t@	c #0347B7",
"u@	c #0146B7",
"v@	c #0045B7",
"w@	c #0044B7",
"x@	c #0044B8",
"y@	c #0144B5",
"z@	c #00369E",
"                                            ",
". + @ # $ % & * = - ; > , ' ) ! ~ { ] ^ / ( ",
"_ : < [ } | 1 2 3 4 5 6 7 8 9 0 a b c d e f ",
"g h i j k l m n o p q r s t u v w x y z A B ",
"C D E F G H I J K J L J J L J M N O P Q R S ",
"T U V W X Y Z `  .....+...@.#.$.%.&.*.=.-.;.",
">.,.'.).!.~.{. . . . . . .].^./.(._.:.<.[.}.",
"|.1.2.3.4.5. . . . .].].6.7.8.9.0.a.b.c.d.e.",
"f.g.h.i.j. . . . .k.l.m.n.8.o.p.q.r.s.t.u.v.",
"w.x.y.z. . . .k.].l.A.B.8.C.D.E.F.G.H.I.J.K.",
"L.M.N. . . . .].].6.n.8.o.D.E.O.P.Q.R.S.T.U.",
"V.W.N. . . . .].l.X.7.Y.D.E.Z.`. +.+++@+#+$+",
"%+&+N. . .k.].m.B.8.C.D.*+F.=+-+;+>+,+'+)+!+",
"~+{+]+^+/+ .A.(+8._+D.:+<+=+-+[+}+|+1+2+3+4+",
"5+6+7+8+9+0+a+b+C.D.c+d+P.Q.;+e+f+g+h+i+j+k+",
"l+m+n+o+p+q+r+s+t+:+u+=+v+w+x+y+z+A+B+C+D+E+",
"F+G+H+I+J+K+L+M+N+O+P+Q+R+S+T+U+V+W+X+Y+Z+`+",
" @.@+@@@#@$@%@&@*@=@-@;@>@,@'@)@!@~@{@]@^@/@",
"(@_@:@<@[@}@|@1@2@3@4@5@6@7@8@9@0@a@b@c@d@e@",
"f@g@h@i@j@k@l@m@n@o@p@q@r@s@t@u@v@v@w@x@y@z@",
"                                            ",
"                                            "};
