/* XPM */
static char * C:\Users\frank\Documents\GitHub\DSI_Studio\icons\guides_xpm[] = {
"22 22 158 2",
"  	c None",
". 	c #FFFFFF",
"+ 	c #FFFFFE",
"@ 	c #6E87FF",
"# 	c #FFFEFE",
"$ 	c #FEFEFE",
"% 	c #FDFDFD",
"& 	c #DDDEDF",
"* 	c #DFE0E1",
"= 	c #DEE0E1",
"- 	c #EEEDDF",
"; 	c #5F76F2",
"> 	c #E1E1E0",
", 	c #E1E2E2",
"' 	c #E2E3E4",
") 	c #E3E4E5",
"! 	c #E5E6E6",
"~ 	c #E5E6E7",
"{ 	c #E7E8E8",
"] 	c #E1E2E3",
"^ 	c #F1EFE1",
"/ 	c #6179F4",
"( 	c #E5E6E5",
"_ 	c #E6E7E7",
": 	c #E8E9E9",
"< 	c #E8E9EA",
"[ 	c #EAEBEB",
"} 	c #E9EAEA",
"| 	c #DEDFE0",
"1 	c #E3E3E6",
"2 	c #D7DDD9",
"3 	c #E1E1E3",
"4 	c #F4F1E2",
"5 	c #6279F4",
"6 	c #E8E9E7",
"7 	c #E8E8E9",
"8 	c #DFE4E0",
"9 	c #EDECEE",
"0 	c #EBECEC",
"a 	c #ECECEC",
"b 	c #ECEDED",
"c 	c #EBEDED",
"d 	c #F2E9F4",
"e 	c #038302",
"f 	c #D9E0DB",
"g 	c #F5F3E5",
"h 	c #637BF5",
"i 	c #EAEBEA",
"j 	c #E2E8E3",
"k 	c #038802",
"l 	c #FEF5FF",
"m 	c #EDEEEE",
"n 	c #EDEFEF",
"o 	c #EFEFEF",
"p 	c #EEEFEF",
"q 	c #008C00",
"r 	c #5ABF37",
"s 	c #FEF7ED",
"t 	c #647CF6",
"u 	c #F3EFF3",
"v 	c #62C33D",
"w 	c #0B9700",
"x 	c #FFF6FF",
"y 	c #EFF0F0",
"z 	c #F0F0F0",
"A 	c #F1F1F1",
"B 	c #F0F1F1",
"C 	c #F4EBF5",
"D 	c #068904",
"E 	c #DEE5DF",
"F 	c #FAF7E9",
"G 	c #657DF7",
"H 	c #EEEFED",
"I 	c #E8ECE7",
"J 	c #098F04",
"K 	c #FFF8FF",
"L 	c #F2F2F2",
"M 	c #F3F3F3",
"N 	c #F2F3F3",
"O 	c #E7E7E8",
"P 	c #DCE2DE",
"Q 	c #E9E9EA",
"R 	c #FCFAEA",
"S 	c #667DF7",
"T 	c #EFF1EF",
"U 	c #F0EFF0",
"V 	c #E6EBE6",
"W 	c #F4F4F5",
"X 	c #F4F4F4",
"Y 	c #F5F5F5",
"Z 	c #E6E7E8",
"` 	c #E9EAE9",
" .	c #FEFBEC",
"..	c #667EF8",
"+.	c #F1F2F0",
"@.	c #F6F5F5",
"#.	c #F6F7F7",
"$.	c #F7F7F7",
"%.	c #E3E4E4",
"&.	c #FFFDED",
"*.	c #677EF8",
"=.	c #F2F3F1",
"-.	c #F3F4F4",
";.	c #F8F8F8",
">.	c #F9F9F9",
",.	c #E4E5E6",
"'.	c #E9EAEB",
").	c #FFFEEF",
"!.	c #687EF9",
"~.	c #F4F4F2",
"{.	c #F6F6F6",
"].	c #FAFAFA",
"^.	c #EBECEB",
"/.	c #FFFFF0",
"(.	c #677FFA",
"_.	c #F5F6F4",
":.	c #EAEBE8",
"<.	c #F0F0EE",
"[.	c #F1F1F0",
"}.	c #FFFFF1",
"|.	c #6A80FA",
"1.	c #F8F8F5",
"2.	c #F8F9F7",
"3.	c #FBFBF9",
"4.	c #FCFCFA",
"5.	c #FDFDFB",
"6.	c #748CFF",
"7.	c #647CF5",
"8.	c #677FF7",
"9.	c #687FF8",
"0.	c #6880F9",
"a.	c #7288F9",
"b.	c #7C90FA",
"c.	c #647CFB",
"d.	c #6D83FC",
"e.	c #6E84FD",
"f.	c #7B92FF",
"g.	c #FAF9E9",
"h.	c #FFFCED",
"i.	c #FFFFF3",
"j.	c #6980FB",
"k.	c #FFFFF7",
"l.	c #FFFFF9",
"m.	c #FFFFFA",
"n.	c #FFFFFB",
"o.	c #FFFFFC",
"p.	c #F1F3F3",
"q.	c #FFFFF4",
"r.	c #6981FB",
"s.	c #FBFBFB",
"t.	c #FCFCFC",
"u.	c #EAEDED",
"v.	c #F1F2F2",
"w.	c #FFFFF5",
"x.	c #EAECEC",
"y.	c #FFFFF6",
"z.	c #6A81FC",
"A.	c #758DFF",
"                                            ",
"                                            ",
"      . . . . . + @ + + # $ % % % % .       ",
"      . & * * = - ; > , ' ) ! ~ { ! .       ",
"      . * ] ] ] ^ / ( ~ _ : < [ [ } .       ",
"      . | 1 2 3 4 5 6 7 8 9 0 a b c .       ",
"      . | d e f g h i j k l m n o p .       ",
"      . | d q r s t u v w x y z A B .       ",
"      . | C D E F G H I J K B L M N .       ",
"      . * O P Q R S T U V W M X Y X .       ",
"      . ] Z ` 0  ...+.B N M Y @.#.$..       ",
"      . %.: [ 0 &.*.=.L -.Y #.;.;.>..       ",
"      . ,.'.a m ).!.~.-.{.#.;.>.].>..       ",
"      . _ ^.b o /.(._.{.$.>.>.].].]..       ",
"      . :.H <.[.}.|.1.2.3.4.4.5.5.5..       ",
"      6.7.8.9.0.a.b.c.d.d.d.e.e.e.e.f.      ",
"      . g.h.).}.i.j.k.l.l.m.n.n.o.o..       ",
"      . [ p B p.q.r.3.>.s.s.t.% % $ .       ",
"      . u.y v.-.w.r.3.].s.t.t.% $ t..       ",
"      . x.y v.-.y.z.3.].s.t.% $ t.A .       ",
"      . . . . . . A.. . . . . . . . .       ",
"                                            "};
