/* XPM */
static char * new_xpm[] = {
"16 16 138 2",
"  	c None",
". 	c #87A9DC",
"+ 	c #88ABDE",
"@ 	c #84A3D6",
"# 	c #666666",
"$ 	c #FFFFFF",
"% 	c #FBFEFF",
"& 	c #F8FBFF",
"* 	c #F5FAFE",
"= 	c #F1F8FE",
"- 	c #EEF6FE",
"; 	c #ECF3FD",
"> 	c #77B3EA",
", 	c #FBFDFF",
"' 	c #F7FBFF",
") 	c #F4F9FE",
"! 	c #F1F7FE",
"~ 	c #EDF5FE",
"{ 	c #EBF3FD",
"] 	c #E7F1FD",
"^ 	c #43A6F7",
"/ 	c #4192E0",
"( 	c #F7FAFF",
"_ 	c #F3F8FE",
": 	c #F0F6FE",
"< 	c #ECF4FE",
"[ 	c #E9F2FE",
"} 	c #E6F1FD",
"| 	c #E2EFFD",
"1 	c #CCD5FF",
"2 	c #AAB3F5",
"3 	c #7E88B3",
"4 	c #F2F8FE",
"5 	c #EEF5FE",
"6 	c #ECF4FD",
"7 	c #E8F2FD",
"8 	c #E5F0FD",
"9 	c #E2EEFD",
"0 	c #DEECFD",
"a 	c #DAEAFD",
"b 	c #D8E8FC",
"c 	c #D4E6FC",
"d 	c #BAC9F4",
"e 	c #EDF5FD",
"f 	c #EAF3FE",
"g 	c #E7F2FD",
"h 	c #E4EFFD",
"i 	c #E1EDFD",
"j 	c #DAEAFC",
"k 	c #D7E8FC",
"l 	c #D3E6FC",
"m 	c #D0E4FC",
"n 	c #BDCDF3",
"o 	c #EAF3FD",
"p 	c #E3EFFD",
"q 	c #DFEDFD",
"r 	c #DCEBFC",
"s 	c #D9E9FD",
"t 	c #D6E7FD",
"u 	c #D3E5FC",
"v 	c #CFE4FC",
"w 	c #CBE1FC",
"x 	c #BACCF3",
"y 	c #E5F0FE",
"z 	c #E1EEFD",
"A 	c #DFECFD",
"B 	c #DBEBFD",
"C 	c #D8E9FD",
"D 	c #D5E6FC",
"E 	c #D1E5FC",
"F 	c #CEE3FB",
"G 	c #CAE1FC",
"H 	c #C7DFFB",
"I 	c #B7C9F2",
"J 	c #83A2D5",
"K 	c #E0EEFD",
"L 	c #DDECFD",
"M 	c #DBEAFC",
"N 	c #D1E4FC",
"O 	c #CDE2FB",
"P 	c #CAE1FB",
"Q 	c #C6DFFB",
"R 	c #C3DDFB",
"S 	c #B5C8F2",
"T 	c #809CCF",
"U 	c #DDEBFC",
"V 	c #D6E7FC",
"W 	c #CCE2FC",
"X 	c #C9E0FB",
"Y 	c #C6DEFB",
"Z 	c #C2DCFB",
"` 	c #BFDBFA",
" .	c #B1C5F1",
"..	c #7C95C8",
"+.	c #D2E5FC",
"@.	c #CEE3FC",
"#.	c #CBE1FB",
"$.	c #C8E0FB",
"%.	c #C4DEFB",
"&.	c #C1DCFA",
"*.	c #BED9FB",
"=.	c #BBD8FA",
"-.	c #AFC3F0",
";.	c #798FC2",
">.	c #D4E7FC",
",.	c #C4DCFB",
"'.	c #C0DBFB",
").	c #BCDAFA",
"!.	c #B9D7FB",
"~.	c #B6D5FB",
"{.	c #ABC1F0",
"].	c #7588BB",
"^.	c #C3DCFB",
"/.	c #BFDAFB",
"(.	c #BCD9FB",
"_.	c #B8D6FA",
":.	c #B5D5FA",
"<.	c #B1D3FA",
"[.	c #A8BFEF",
"}.	c #7282B5",
"|.	c #BEDAFA",
"1.	c #B8D7FB",
"2.	c #B4D4FA",
"3.	c #B1D2F9",
"4.	c #AED0FA",
"5.	c #A5BDEE",
"6.	c #6E7BAE",
"7.	c #9DADD9",
"8.	c #9AA8D6",
"9.	c #98A6D3",
"0.	c #97A4D2",
"a.	c #99A1CC",
"b.	c #979EC9",
"c.	c #969CC6",
"d.	c #9599C4",
"e.	c #9396C1",
"f.	c #8B91B6",
"g.	c #8B8EB8",
"    . . . . . . + @ . #         ",
"    . $ % & * = - ; . > #       ",
"    . , ' ) ! ~ { ] ^ ^ / #     ",
"    . ( _ : < [ } | 1 1 2 3 #   ",
"    . 4 5 6 7 8 9 0 a b c d #   ",
"    . e f g h i 0 j k l m n #   ",
"    . o } p q r s t u v w x #   ",
"    . y z A B C D E F G H I #   ",
"    J K L M k l N O P Q R S #   ",
"    T U a V l v W X Y Z `  .#   ",
"    ..b D +.@.#.$.%.&.*.=.-.#   ",
"    ;.>.N @.G H ,.'.).!.~.{.#   ",
"    ].v W X Y ^./.(._.:.<.[.#   ",
"    }.w $.%.Z |.=.1.2.3.4.5.#   ",
"    6.7.8.9.0.a.b.c.d.e.f.g.#   ",
"      # # # # # # # # # # # #   "};
