/* XPM */
static char * C:\Users\frank\Documents\GitHub\DSI_Studio\icons\preferences_xpm[] = {
"22 22 76 1",
" 	c None",
".	c #8D908B",
"+	c #898B86",
"@	c #888A85",
"#	c #8F928C",
"$	c #CECFCD",
"%	c #F5F5F5",
"&	c #F7F7F6",
"*	c #F6F6F6",
"=	c #F6F6F5",
"-	c #F5F5F4",
";	c #F4F4F4",
">	c #F3F3F3",
",	c #F1F1F1",
"'	c #CACBC9",
")	c #ECECEB",
"!	c #EBEBEA",
"~	c #EBEBE9",
"{	c #EAEAE9",
"]	c #EAEAE8",
"^	c #E9E9E7",
"/	c #E8E8E7",
"(	c #E7E7E6",
"_	c #E6E6E5",
":	c #E5E5E4",
"<	c #E4E4E3",
"[	c #E3E3E3",
"}	c #E2E2E2",
"|	c #E1E1E1",
"1	c #E0E0E0",
"2	c #555753",
"3	c #E9E9E8",
"4	c #FFFFFF",
"5	c #2E3436",
"6	c #BABDB6",
"7	c #343A3B",
"8	c #E2E2E1",
"9	c #E1E1E0",
"0	c #414646",
"a	c #4D5252",
"b	c #ECECEA",
"c	c #5A5E5D",
"d	c #E3E3E2",
"e	c #676A68",
"f	c #737673",
"g	c #E8E8E6",
"h	c #E4E4E4",
"i	c #F3F3F2",
"j	c #F2F2F2",
"k	c #80827E",
"l	c #F0F0F0",
"m	c #E5E5E5",
"n	c #F7F7F7",
"o	c #FEFEFE",
"p	c #EFEFEF",
"q	c #D5D5D5",
"r	c #D3D3D3",
"s	c #D2D2D2",
"t	c #D1D1D1",
"u	c #D0D0D0",
"v	c #CFCFCF",
"w	c #CECECE",
"x	c #CDCDCD",
"y	c #CCCCCC",
"z	c #CBCBCB",
"A	c #CACACA",
"B	c #C9C9C9",
"C	c #C8C8C8",
"D	c #C7C7C7",
"E	c #DEDEDE",
"F	c #898C87",
"G	c #DFDFDF",
"H	c #DDDDDD",
"I	c #DCDCDC",
"J	c #DBDBDB",
"K	c #868984",
"                      ",
"                      ",
" .+@@@@@@@@@@@@@@@+.  ",
"#$%&&*==%%-;;>>>>>,'# ",
"+%)!~{]^/(_:<[}|11|,+ ",
"@&!222223/(_:<[}|11>@ ",
"@&~24442]555_:555|1>@ ",
"@*{26662~777(_77789>@ ",
"@=322222~000(22222|>@ ",
"@%/3aaab~aaa/24442}>@ ",
"@%(/ccc~~ccc/26662d>@ ",
"@%_(eee]]eee/22222[>@ ",
"@>:_fff^22222gfffh[i@ ",
"@j<:kkk(24442(kkk:<j@ ",
"@,d<@@@_26662(@@@:<,@ ",
"@l8d[<::22222___::<,@ ",
"@*8|}d<<::m____::h:n@ ",
"@>o444444444444444op@ ",
"+mqrstuvvwxyzAABCDCE+ ",
"Fv[h[}}|111GGEHHHIJAF ",
" K+@@@@@@@@@@@@@@@+K  ",
"                      "};
