/* XPM */
static char * red_CROSS_xpm[] = {
"16 16 2 1",
" 	c None",
".	c #A40000",
"                ",
"        .       ",
"        .       ",
"        .       ",
"        .       ",
"        .       ",
"        .       ",
"                ",
" ......   ......",
"                ",
"        .       ",
"        .       ",
"        .       ",
"        .       ",
"        .       ",
"        .       "};
