/* XPM */
static char * C:\Users\frank\Documents\GitHub\DSI_Studio\icons\report_xpm[] = {
"22 22 91 1",
" 	c None",
".	c #A3A5A3",
"+	c #9D9F9D",
"@	c #A1A3A1",
"#	c #B7B8B6",
"$	c #F6F6F6",
"%	c #B9BAB8",
"&	c #8A8C87",
"*	c #727470",
"=	c #D3D5CF",
"-	c #747672",
";	c #FDFDFD",
">	c #A9AAA8",
",	c #5D5F5B",
"'	c #81837F",
")	c #888A85",
"!	c #FFFFFF",
"~	c #EEEEEC",
"{	c #CE5C00",
"]	c #B6B6B3",
"^	c #C3C4C1",
"/	c #BDBEBB",
"(	c #F5D400",
"_	c #FCAF3E",
":	c #EFEFED",
"<	c #EFEFEE",
"[	c #F0F0EE",
"}	c #FEFEFE",
"|	c #F57900",
"1	c #F1F1EF",
"2	c #C5C6C3",
"3	c #BFC0BD",
"4	c #F2F2F1",
"5	c #F3F3F2",
"6	c #C7C8C4",
"7	c #C0C1BE",
"8	c #F4F4F3",
"9	c #C7C8C5",
"0	c #C0C1BF",
"a	c #F5F5F4",
"b	c #F6F6F5",
"c	c #C8C9C6",
"d	c #C1C2C0",
"e	c #C2C3C0",
"f	c #C8C9C7",
"g	c #F7F7F6",
"h	c #87725C",
"i	c #F7F7F7",
"j	c #F8F8F7",
"k	c #F8F8F8",
"l	c #000000",
"m	c #6B5736",
"n	c #D2BBA8",
"o	c #767873",
"p	c #F9F9F8",
"q	c #C9CAC8",
"r	c #FAFAF9",
"s	c #CACBC8",
"t	c #C3C4C2",
"u	c #D1BAA7",
"v	c #D7D7D7",
"w	c #DCDCDC",
"x	c #7D7F7B",
"y	c #FAFAFA",
"z	c #FBFBFA",
"A	c #FBFBFB",
"B	c #D8D8D8",
"C	c #EDEDEC",
"D	c #868883",
"E	c #FCFCFB",
"F	c #FCFCFC",
"G	c #FDFDFC",
"H	c #FEFEFD",
"I	c #E9EBE7",
"J	c #D3D7CF",
"K	c #D9DCD5",
"L	c #898B86",
"M	c #E3E6E1",
"N	c #E4E7E2",
"O	c #E2E5E0",
"P	c #E1E4DE",
"Q	c #E0E3DD",
"R	c #DFE2DC",
"S	c #DEE1DA",
"T	c #DCDFD9",
"U	c #DBDED8",
"V	c #DADDD7",
"W	c #D8DBD4",
"X	c #D7DAD3",
"Y	c #D5D9D1",
"Z	c #80827E",
"   .+.+.+.+.+.+@      ",
"   #$#$#$#$#$#$%      ",
"  &*=*=*=*=*=*=-&     ",
" &;>,',',',',',>;&    ",
" )!~~~~~~~~~~~~~!)    ",
" )!~~~~~~~~~~~~~!) {{ ",
" )!~]]~^///^~~~~!){(_{",
" )!::<<<<[[[[[<<}{(_|{",
" )!1233212212321{(_|{ ",
" )!444444444444{(_|{  ",
" )!56768900989{(_|{   ",
" )!aaaaaaaaaa{(_|{    ",
" )!bcdeefgffg{_|{h    ",
" )}ijjjjjkkk{lm{no    ",
" )}pq^qrstsrl{uvwx    ",
" );ryyzzAAAA$BwC$D    ",
" );zzAEFFGG;EgkAG)    ",
" );AAFFG;}}}}H;G;)    ",
" )IJJJJJJJJJJJJJK)    ",
" LMNMOPQRSTUVKWXYL    ",
" Z&)))))))))))))&Z    ",
"                      "};
