/* XPM */
static char * C:\Users\frank\Documents\GitHub\DSI_Studio\icons\rgb_xpm[] = {
"22 22 158 2",
"  	c None",
". 	c #5F3869",
"+ 	c #684171",
"@ 	c #5E3867",
"# 	c #54325D",
"$ 	c #77517C",
"% 	c #B08AAE",
"& 	c #835D87",
"* 	c #5D3667",
"= 	c #9B1357",
"- 	c #A41A5E",
"; 	c #9E1359",
"> 	c #A57FA4",
", 	c #734D79",
"' 	c #583460",
") 	c #9D1157",
"! 	c #BA2D71",
"~ 	c #E4609A",
"{ 	c #BB3775",
"] 	c #951253",
"^ 	c #5D3765",
"/ 	c #825C86",
"( 	c #A47EA3",
"_ 	c #8E6890",
": 	c #5E3767",
"< 	c #8B0F4E",
"[ 	c #AC1C63",
"} 	c #DE4F90",
"| 	c #DF5B95",
"1 	c #9B1458",
"2 	c #613A6B",
"3 	c #906E90",
"4 	c #896689",
"5 	c #5B3862",
"6 	c #402546",
"7 	c #9C1056",
"8 	c #C63078",
"9 	c #DD4E8F",
"0 	c #B33771",
"a 	c #663365",
"b 	c #855F89",
"c 	c #886589",
"d 	c #2A4D87",
"e 	c #204A87",
"f 	c #234C88",
"g 	c #A11259",
"h 	c #D43A82",
"i 	c #CB4683",
"j 	c #752A5F",
"k 	c #5F3768",
"l 	c #6A496F",
"m 	c #789ECA",
"n 	c #7094BD",
"o 	c #6D90B8",
"p 	c #779EC9",
"q 	c #789FCB",
"r 	c #9A0F54",
"s 	c #B81D69",
"t 	c #D43982",
"u 	c #C23679",
"v 	c #851754",
"w 	c #4E2E56",
"x 	c #1E4781",
"y 	c #436CA0",
"z 	c #416E72",
"A 	c #426D7A",
"B 	c #4570A5",
"C 	c #4A78B1",
"D 	c #9D0F56",
"E 	c #B91D69",
"F 	c #9E1257",
"G 	c #7A0D43",
"H 	c #234964",
"I 	c #3D6E29",
"J 	c #4C7E1B",
"K 	c #447815",
"L 	c #204571",
"M 	c #1F4984",
"N 	c #214A87",
"O 	c #A40404",
"P 	c #A40000",
"Q 	c #950000",
"R 	c #980830",
"S 	c #9C0C47",
"T 	c #880312",
"U 	c #8C1503",
"V 	c #723200",
"W 	c #3D6A0D",
"X 	c #658F2B",
"Y 	c #A2C260",
"Z 	c #6C9832",
"` 	c #3F6D0F",
" .	c #DF6D6D",
"..	c #D76969",
"+.	c #C66161",
"@.	c #C46060",
"#.	c #BC5C59",
"$.	c #CB5804",
"%.	c #D1680D",
"&.	c #BE5F05",
"*.	c #677215",
"=.	c #8BAA4D",
"-.	c #99B958",
";.	c #477B11",
">.	c #CB4343",
",.	c #C14040",
"'.	c #B83C3C",
").	c #C24D20",
"!.	c #D8741C",
"~.	c #FBB353",
"{.	c #E68525",
"].	c #C95E01",
"^.	c #6B8F32",
"/.	c #92B251",
"(.	c #78A13B",
"_.	c #467811",
":.	c #A30101",
"<.	c #9D0000",
"[.	c #990A00",
"}.	c #CE5C04",
"|.	c #F5A748",
"1.	c #FAA844",
"2.	c #DD7413",
"3.	c #A65903",
"4.	c #437210",
"5.	c #8CB046",
"6.	c #96B851",
"7.	c #4D8016",
"8.	c #BE5905",
"9.	c #E28326",
"0.	c #FAA742",
"a.	c #F19129",
"b.	c #CE5D01",
"c.	c #41730E",
"d.	c #679226",
"e.	c #7CA43B",
"f.	c #46790F",
"g.	c #D06105",
"h.	c #F8A33E",
"i.	c #F89B31",
"j.	c #D56607",
"k.	c #44790D",
"l.	c #679327",
"m.	c #467A10",
"n.	c #437410",
"o.	c #CB5F05",
"p.	c #E88725",
"q.	c #F89A30",
"r.	c #E97F15",
"s.	c #CD5C01",
"t.	c #3F6F0D",
"u.	c #44760E",
"v.	c #BE5803",
"w.	c #CF5F02",
"x.	c #E57912",
"y.	c #D05F01",
"z.	c #CA5B01",
"A.	c #C55900",
"                                            ",
"                                            ",
"                        . + @               ",
"                      # $ % & *             ",
"          = - ;       . > > , '             ",
"        ) ! ~ { ]   ^ / ( _ :               ",
"        < [ } | 1   2 3 4 5 6               ",
"          7 8 9 0 a b c d e e e e e e f     ",
"            g h i j k l e m n o p q q e     ",
"            r s t u v w x y z A B C C e     ",
"              D E F G   H I J K L M e N     ",
"      O P P Q R S T U V W X Y Z `           ",
"      P  . ...+.@.#.$.%.&.*.=.-.;.          ",
"      P >.>.>.,.'.).!.~.{.].^./.(._.        ",
"      :.P P P <.[.}.|.1.2.3.4.5.6.7.        ",
"                8.9.0.a.b.  c.d.5.e.f.      ",
"                g.h.i.j.      k.l.m.n.      ",
"              o.p.q.r.s.      t.u.          ",
"              v.w.x.y.                      ",
"                  z.A.                      ",
"                                            ",
"                                            "};
