/* XPM */
static char * C:\Users\frank\Documents\GitHub\DSI_Studio\icons\rotate_xpm[] = {
"22 22 97 2",
"  	c None",
". 	c #303030",
"+ 	c #484848",
"@ 	c #545454",
"# 	c #555555",
"$ 	c #505050",
"% 	c #3F3F3F",
"& 	c #2E2E2E",
"* 	c #383838",
"= 	c #585858",
"- 	c #787878",
"; 	c #949494",
"> 	c #A1A1A1",
", 	c #A6A6A6",
"' 	c #9F9F9F",
") 	c #8C8C8C",
"! 	c #6C6C6C",
"~ 	c #353535",
"{ 	c #2B2B2B",
"] 	c #696969",
"^ 	c #424242",
"/ 	c #868686",
"( 	c #A3A3A3",
"_ 	c #5A5A5A",
": 	c #2C2C2C",
"< 	c #2D2D2D",
"[ 	c #3B3B3B",
"} 	c #565656",
"| 	c #929292",
"1 	c #969696",
"2 	c #989898",
"3 	c #828282",
"4 	c #767676",
"5 	c #979797",
"6 	c #393939",
"7 	c #3A3A3A",
"8 	c #888888",
"9 	c #8A8A8A",
"0 	c #8B8B8B",
"a 	c #686868",
"b 	c #464646",
"c 	c #2A2A2A",
"d 	c #838383",
"e 	c #2F2F2F",
"f 	c #7E7E7E",
"g 	c #777777",
"h 	c #272727",
"i 	c #262626",
"j 	c #282828",
"k 	c #363636",
"l 	c #6A6A6A",
"m 	c #818181",
"n 	c #373737",
"o 	c #404040",
"p 	c #727272",
"q 	c #292929",
"r 	c #3D3D3D",
"s 	c #6F6F6F",
"t 	c #7D7D7D",
"u 	c #7A7A7A",
"v 	c #323232",
"w 	c #4A4A4A",
"x 	c #656565",
"y 	c #3C3C3C",
"z 	c #4B4B4B",
"A 	c #606060",
"B 	c #737373",
"C 	c #595959",
"D 	c #414141",
"E 	c #6D6D6D",
"F 	c #797979",
"G 	c #717171",
"H 	c #5E5E5E",
"I 	c #4D4D4D",
"J 	c #4C4C4C",
"K 	c #333333",
"L 	c #313131",
"M 	c #474747",
"N 	c #4E4E4E",
"O 	c #535353",
"P 	c #5C5C5C",
"Q 	c #444444",
"R 	c #3E3E3E",
"S 	c #5B5B5B",
"T 	c #5D5D5D",
"U 	c #616161",
"V 	c #646464",
"W 	c #666666",
"X 	c #4F4F4F",
"Y 	c #626262",
"Z 	c #5F5F5F",
"` 	c #6B6B6B",
" .	c #707070",
"..	c #676767",
"+.	c #434343",
"@.	c #636363",
"#.	c #343434",
"                                            ",
"                . + @ # $ % &               ",
"            * = - ; > , ' ) ! ~ {     & ]   ",
"        . ^ / ( ( ( ( ( ( ( ( ' _ : < ! [   ",
"      & } | 1 1 1 1 2 1 1 1 1 1 2 3 4 5 6   ",
"      7 8 9 9 0 a b & c [ @ d ) ) ) 0 0 *   ",
"    e ! f f g % h h i j h c k l d d 3 m n   ",
"    o p p p [ h q         j ~ r s t u - k   ",
"  v w x x w i c           q y z A g B s ~   ",
"  & $ C C & h {         j D E u F G H b e   ",
"  { z I J j h           * e . e & { c { K   ",
"  q & L K L {                               ",
"  c h c v 6 k q                             ",
"  { c L 6 D w e             q               ",
"    : * o M w N K c       { b               ",
"    c r b w N O P Q 7 n R S S = O           ",
"      L M I O = T U V W W V U T = # 6       ",
"      q o X } P Y W l ! ! l W Y T b h       ",
"        j * O Z x `  .B B  .` ..+.j         ",
"            v 6 N @.E 4  .V % &             ",
"                j K & & #.q h               ",
"                                            "};
