/* XPM */
static char * run_xpm[] = {
"16 16 145 2",
"  	c None",
". 	c #FFFFFF",
"+ 	c #B1D8B1",
"@ 	c #76BB76",
"# 	c #67B367",
"$ 	c #5BAD5B",
"% 	c #54A954",
"& 	c #4FA74F",
"* 	c #4AA44A",
"= 	c #4BA54B",
"- 	c #46A346",
"; 	c #3FA03F",
"> 	c #3B9E3B",
", 	c #319831",
"' 	c #238C23",
") 	c #8ABB8A",
"! 	c #77BB77",
"~ 	c #9DCF9D",
"{ 	c #8CC68C",
"] 	c #79BC79",
"^ 	c #70B870",
"/ 	c #69B469",
"( 	c #65B265",
"_ 	c #62B062",
": 	c #5DAE5D",
"< 	c #56AB56",
"[ 	c #4EA74E",
"} 	c #41A141",
"| 	c #2F942F",
"1 	c #197719",
"2 	c #6BB56B",
"3 	c #8DC68D",
"4 	c #80C080",
"5 	c #6FB76F",
"6 	c #67B267",
"7 	c #60AE60",
"8 	c #B4D9B4",
"9 	c #4CA54C",
"0 	c #49A449",
"a 	c #3A9D3A",
"b 	c #309530",
"c 	c #1E7A1E",
"d 	c #5EAF5E",
"e 	c #7ABD7A",
"f 	c #63B063",
"g 	c #5AAB5A",
"h 	c #52A652",
"i 	c #339933",
"j 	c #309930",
"k 	c #309830",
"l 	c #237D23",
"m 	c #53A953",
"n 	c #6CB66C",
"o 	c #68B468",
"p 	c #5EAD5E",
"q 	c #54A854",
"r 	c #4CA34C",
"s 	c #429F42",
"t 	c #299729",
"u 	c #2B982B",
"v 	c #2D952D",
"w 	c #237E23",
"x 	c #63B163",
"y 	c #61AF61",
"z 	c #59AB59",
"A 	c #51A651",
"B 	c #48A248",
"C 	c #3F9F3F",
"D 	c #369C36",
"E 	c #269926",
"F 	c #2A972A",
"G 	c #217E21",
"H 	c #45A245",
"I 	c #5AAC5A",
"J 	c #259A25",
"K 	c #1D7F1D",
"L 	c #1F9E1F",
"M 	c #188118",
"N 	c #359A35",
"O 	c #52A852",
"P 	c #4EA84E",
"Q 	c #49A749",
"R 	c #41A841",
"S 	c #38AA38",
"T 	c #19AC19",
"U 	c #18A218",
"V 	c #128212",
"W 	c #2C962C",
"X 	c #42A042",
"Y 	c #4CA74C",
"Z 	c #46A746",
"` 	c #40AA40",
" .	c #1AB31A",
"..	c #14AF14",
"+.	c #0FA30F",
"@.	c #0B800B",
"#.	c #229122",
"$.	c #389C38",
"%.	c #43A243",
"&.	c #48A448",
"*.	c #45A545",
"=.	c #42A642",
"-.	c #21B521",
";.	c #18B618",
">.	c #0EB10E",
",.	c #08A308",
"'.	c #057E05",
").	c #198D19",
"!.	c #379C37",
"~.	c #3D9F3D",
"{.	c #3C9F3C",
"].	c #39A139",
"^.	c #A3D6A3",
"/.	c #24AF24",
"(.	c #1CB11C",
"_.	c #13B213",
":.	c #0AAD0A",
"<.	c #049F04",
"[.	c #027902",
"}.	c #118311",
"|.	c #1F8C1F",
"1.	c #2A912A",
"2.	c #2F932F",
"3.	c #2E942E",
"4.	c #299A29",
"5.	c #239E23",
"6.	c #1CA31C",
"7.	c #15A415",
"8.	c #0DA40D",
"9.	c #059F05",
"0.	c #019101",
"a.	c #006F00",
"b.	c #85B785",
"c.	c #0F6F0F",
"d.	c #167416",
"e.	c #1A761A",
"f.	c #187818",
"g.	c #177917",
"h.	c #137D13",
"i.	c #0D7F0D",
"j.	c #0A7E0A",
"k.	c #077C07",
"l.	c #027B02",
"m.	c #007000",
"n.	c #7FB07F",
"  . . . . . . . . . . . . . .   ",
". + @ # $ % & * = - ; > , ' ) . ",
". ! ~ { ] ^ / ( _ : < [ } | 1 . ",
". 2 3 4 5 6 7 8 . 9 0 } a b c . ",
". d e ^ f g h . . . i j k | l . ",
". m n o p q r s . . . t u v w . ",
". & x y z A B C D . . . E F G . ",
". H I . . . . . . . . . . J K . ",
". C m . . . . . . . . . . L M . ",
". N = O m P Q R S . . . T U V . ",
". W X 9 & Y Z ` . . .  ...+.@.. ",
". #.$.%.&.*.=.. . . -.;.>.,.'.. ",
". ).W !.~.{.].^.. /.(._.:.<.[.. ",
". }.|.1.2.3.W 4.5.6.7.8.9.0.a.. ",
". b.c.d.e.e.f.g.h.i.j.k.l.m.n.. ",
"  . . . . . . . . . . . . . .   "};
