/* XPM */
static char * C:\frank\myprog\project\DSI Studio\src\icons\save_all_xpm[] = {
"16 16 62 1",
" 	c None",
".	c #D5D5E1",
"+	c #DBDBDB",
"@	c #7E7EC1",
"#	c #A3A3A6",
"$	c #C1C1F1",
"%	c #6161AC",
"&	c #CACACA",
"*	c #B9B9EE",
"=	c #BDBDBD",
"-	c #D4D4D4",
";	c #656565",
">	c #B2B2EE",
",	c #6868BE",
"'	c #C4C4C5",
")	c #525252",
"!	c #B5B5B5",
"~	c #C4C4D0",
"{	c #A9A9C2",
"]	c #8787B8",
"^	c #5E5EA2",
"/	c #8282B3",
"(	c #797992",
"_	c #6E6E87",
":	c #AFAFF1",
"<	c #C6C6DE",
"[	c #A1A1BA",
"}	c #A9A9EF",
"|	c #8A8ABB",
"1	c #9B9BCB",
"2	c #F9F9F9",
"3	c #AFAFDF",
"4	c #E2E2E2",
"5	c #9191A3",
"6	c #6D6D99",
"7	c #6C6C6C",
"8	c #EAEAEA",
"9	c #F3F3F3",
"0	c #ADADAD",
"a	c #8D8D8D",
"b	c #7C7C83",
"c	c #7C7C7C",
"d	c #939393",
"e	c #868699",
"f	c #66865C",
"g	c #78857B",
"h	c #878787",
"i	c #29292B",
"j	c #B5B5D8",
"k	c #747474",
"l	c #95959C",
"m	c #39393B",
"n	c #131314",
"o	c #ABABCA",
"p	c #7C7C8C",
"q	c #59595A",
"r	c #B2B2BB",
"s	c #A3A3B6",
"t	c #8B8B9D",
"u	c #5D5D66",
"v	c #6E6E7D",
"w	c #494949",
"  ....+@#       ",
" $%&....+@#     ",
" *%$%&....+@#   ",
" *%*%$%&&=-%;#  ",
" >,*%*%'#=+%)#  ",
" >%>,*%!~{],)#  ",
" >%>%>,^/(_%)#  ",
" :%>%>%<[-{%)#  ",
" }%:%>%|12[%)#  ",
" =-}%:%|34567#  ",
"&89'=}%&=0&0ab# ",
"='&+8'=-0acdefgd",
"a'-'=&-dh7icijek",
" a0--&clmnnbopqc",
"  akd07rpstu);d ",
"    ac;lvwqca   "};
