/* XPM */
static char * C:\Users\frank\Desktop\slice_xpm[] = {
"20 24 170 2",
"  	c #1B1B1B",
". 	c #1E1E1E",
"+ 	c #1F1F1F",
"@ 	c #202020",
"# 	c #222222",
"$ 	c #212121",
"% 	c #1A1A1A",
"& 	c #0E0E0E",
"* 	c #121212",
"= 	c #131313",
"- 	c #191919",
"; 	c #2F2F2F",
"> 	c #3D3D3D",
", 	c #454545",
"' 	c #474747",
") 	c #404040",
"! 	c #343434",
"~ 	c #141414",
"{ 	c #0D0D0D",
"] 	c #0F0F0F",
"^ 	c #232323",
"/ 	c #585858",
"( 	c #636363",
"_ 	c #6E6E6E",
": 	c #606060",
"< 	c #6A6A6A",
"[ 	c #5B5B5B",
"} 	c #353535",
"| 	c #151515",
"1 	c #575757",
"2 	c #787878",
"3 	c #949494",
"4 	c #959595",
"5 	c #8E8E8E",
"6 	c #A5A5A5",
"7 	c #7B7B7B",
"8 	c #565656",
"9 	c #616161",
"0 	c #393939",
"a 	c #111111",
"b 	c #6B6B6B",
"c 	c #4E4E4E",
"d 	c #999999",
"e 	c #AEAEAE",
"f 	c #D2D2D2",
"g 	c #8F8F8F",
"h 	c #D6D6D6",
"i 	c #B8B8B8",
"j 	c #AAAAAA",
"k 	c #4D4D4D",
"l 	c #5E5E5E",
"m 	c #282828",
"n 	c #4F4F4F",
"o 	c #848484",
"p 	c #B2B2B2",
"q 	c #C2C2C2",
"r 	c #DADADA",
"s 	c #A6A6A6",
"t 	c #969696",
"u 	c #D0D0D0",
"v 	c #BCBCBC",
"w 	c #4B4B4B",
"x 	c #555555",
"y 	c #171717",
"z 	c #262626",
"A 	c #CDCDCD",
"B 	c #D5D5D5",
"C 	c #DFDFDF",
"D 	c #ACACAC",
"E 	c #BEBEBE",
"F 	c #D8D8D8",
"G 	c #B9B9B9",
"H 	c #7A7A7A",
"I 	c #373737",
"J 	c #535353",
"K 	c #595959",
"L 	c #909090",
"M 	c #EAEAEA",
"N 	c #A2A2A2",
"O 	c #E5E5E5",
"P 	c #D7D7D7",
"Q 	c #9B9B9B",
"R 	c #919191",
"S 	c #545454",
"T 	c #6C6C6C",
"U 	c #ABABAB",
"V 	c #E3E3E3",
"W 	c #DDDDDD",
"X 	c #CCCCCC",
"Y 	c #BABABA",
"Z 	c #DCDCDC",
"` 	c #DEDEDE",
" .	c #DBDBDB",
"..	c #BDBDBD",
"+.	c #A9A9A9",
"@.	c #777777",
"#.	c #272727",
"$.	c #6D6D6D",
"%.	c #A3A3A3",
"&.	c #E0E0E0",
"*.	c #C8C8C8",
"=.	c #CACACA",
"-.	c #9F9F9F",
";.	c #B3B3B3",
">.	c #979797",
",.	c #7E7E7E",
"'.	c #2E2E2E",
").	c #6F6F6F",
"!.	c #5F5F5F",
"~.	c #7F7F7F",
"{.	c #878787",
"].	c #C4C4C4",
"^.	c #828282",
"/.	c #CFCFCF",
"(.	c #888888",
"_.	c #757575",
":.	c #D3D3D3",
"<.	c #B6B6B6",
"[.	c #868686",
"}.	c #525252",
"|.	c #797979",
"1.	c #B7B7B7",
"2.	c #646464",
"3.	c #8D8D8D",
"4.	c #676767",
"5.	c #C3C3C3",
"6.	c #B0B0B0",
"7.	c #989898",
"8.	c #767676",
"9.	c #898989",
"0.	c #A0A0A0",
"a.	c #CECECE",
"b.	c #AFAFAF",
"c.	c #C5C5C5",
"d.	c #C0C0C0",
"e.	c #BBBBBB",
"f.	c #838383",
"g.	c #515151",
"h.	c #101010",
"i.	c #8C8C8C",
"j.	c #D4D4D4",
"k.	c #808080",
"l.	c #363636",
"m.	c #696969",
"n.	c #9E9E9E",
"o.	c #C9C9C9",
"p.	c #A1A1A1",
"q.	c #242424",
"r.	c #161616",
"s.	c #666666",
"t.	c #C6C6C6",
"u.	c #C1C1C1",
"v.	c #727272",
"w.	c #505050",
"x.	c #9A9A9A",
"y.	c #7D7D7D",
"z.	c #4A4A4A",
"A.	c #484848",
"B.	c #8A8A8A",
"C.	c #464646",
"D.	c #333333",
"E.	c #5A5A5A",
"F.	c #5D5D5D",
"G.	c #2A2A2A",
"H.	c #2C2C2C",
"I.	c #414141",
"J.	c #252525",
"K.	c #0C0C0C",
"L.	c #0A0A0A",
"M.	c #090909",
"  . + + . . + + @ # $ $ $ @ @ @ @ + @ % ",
"& * = = * * - ; > , ' ) ! + = ~ = = ~ { ",
"] = ~ ~ * ^ / ( _ ( : < ( [ } * | ~ ~ & ",
"] = ~ = @ < 1 2 3 4 5 6 7 8 9 0 a ~ ~ ] ",
"] = = | b c d e f 6 g h i j k l m * ~ ] ",
"] = a c n o p q r s t u v v s w x y ~ ] ",
"] * z < : A B C u D 3 E F F G H 1 I ~ ] ",
"] a J K L d u M r e N r O P Q R < S y ] ",
"] - T ( U v r V W X Y Z `  ...+.@.b $ ] ",
"] #.$.R %.s &.V d *.=.-. .C G ;.>.,.'.] ",
"] I ).g *.r C r d !.~.{.B W Z ].^.{.) ] ",
"a , ,.s /.h u P (.S _.2 :./.].F <.[.J & ",
"~ }.|.L 1.Y v A 2.3.+.4.5.5.G 6.7._.2.* ",
"- 1 2 4 D U 5.%.8.f h 9.0.a.v 1.0.7 2.- ",
"~ k 2 3.b.c.B d.*.e.e a.*.C ].].j f.g.~ ",
"h.> _ i.a.*.j.r F 6 t A j.W X ;.^.k.l.h.",
"] m m.k.n.-./.o.U p p.s i r +.s 2 T q.] ",
"] r.s.g.p.5.f 5.N 0.>.U ].u t.>.9 1 y ] ",
"] * I @.x N ]...t.G %.B u.<.N S v.'.~ ] ",
"] ~ ~ S |.w.x.D o.v 0.h c.o k y.z.~ | ] ",
"] ~ | y w.{.A.[ t ~.< 2 K g.B.C.r.| | h.",
"] ~ r.| | D.8.).8 E.F.9 |.$.G.| | | | h.",
"& * ~ ~ ~ * | H.A.J w.I.J.= ~ ~ ~ ~ ~ & ",
"K.{ & & & { { K.L.L.L.L.K.& & { { { { M."};
