/* XPM */
static char * C:\Users\frank\Documents\GitHub\DSI_Studio\icons\stat_xpm[] = {
"22 22 132 2",
"  	c None",
". 	c #7A7A7A",
"+ 	c #7D7D7D",
"@ 	c #AF3812",
"# 	c #C1613F",
"$ 	c #7F7F7F",
"% 	c #B03128",
"& 	c #BE574B",
"* 	c #E8BBB5",
"= 	c #FFFAFB",
"- 	c #7E7E7E",
"; 	c #B12B39",
"> 	c #E1A6A8",
", 	c #FFF3F5",
"' 	c #FFF0F1",
") 	c #FFF4F4",
"! 	c #C65D75",
"~ 	c #FFF1F3",
"{ 	c #FFEDEF",
"] 	c #FFEBEC",
"^ 	c #FFF0F2",
"/ 	c #B4235B",
"( 	c #F3CCD8",
"_ 	c #FFEAEF",
": 	c #FEE6ED",
"< 	c #FEE5EC",
"[ 	c #FFDFEA",
"} 	c #B61B6C",
"| 	c #D370A0",
"1 	c #FFE6F1",
"2 	c #FEE2EE",
"3 	c #FEE0ED",
"4 	c #FED4E8",
"5 	c #FFCFE6",
"6 	c #B92281",
"7 	c #FAD3EA",
"8 	c #FFDDF1",
"9 	c #FFD8EF",
"0 	c #FFCAEA",
"a 	c #EAC1E9",
"b 	c #C9BDEF",
"c 	c #B7108C",
"d 	c #DE82C5",
"e 	c #FFD6F4",
"f 	c #D7BFF0",
"g 	c #8DA5F1",
"h 	c #679CF4",
"i 	c #6DA8F7",
"j 	c #9DC5FB",
"k 	c #7C7E7C",
"l 	c #C125A5",
"m 	c #FFBFF2",
"n 	c #CFB0F1",
"o 	c #5193F4",
"p 	c #B2D0FA",
"q 	c #E1EDFD",
"r 	c #F5F9FE",
"s 	c #F5FAFF",
"t 	c #7B7F7B",
"u 	c #BC00BF",
"v 	c #BA00B8",
"w 	c #B905B3",
"x 	c #C325BA",
"y 	c #D14BC5",
"z 	c #F196E8",
"A 	c #CDACF6",
"B 	c #488EF4",
"C 	c #C9DEFB",
"D 	c #F3F8FE",
"E 	c #EFF6FE",
"F 	c #EBF3FE",
"G 	c #E0EFFF",
"H 	c #7A7E7A",
"I 	c #E36BE7",
"J 	c #EE8EF0",
"K 	c #FBB0FC",
"L 	c #FEB5FE",
"M 	c #FFB5FD",
"N 	c #CAA6FA",
"O 	c #3E88F3",
"P 	c #C1DAFB",
"Q 	c #EDF3FE",
"R 	c #E7F0FE",
"S 	c #DFEBFE",
"T 	c #CDE1FD",
"U 	c #D0E5FF",
"V 	c #7C7D7A",
"W 	c #FFB4FF",
"X 	c #FFB1FF",
"Y 	c #F9AEFF",
"Z 	c #CEA1FC",
"` 	c #9B95F9",
" .	c #3481F1",
"..	c #BAD6FB",
"+.	c #E5EFFE",
"@.	c #DBEAFE",
"#.	c #C9DEFD",
"$.	c #BED6FD",
"%.	c #BDD7FD",
"&.	c #C2DDFF",
"*.	c #7D7C79",
"=.	c #6783F7",
"-.	c #2F71F1",
";.	c #0E6BEF",
">.	c #3886F2",
",.	c #67A3F6",
"'.	c #B5D3FB",
").	c #D0E3FD",
"!.	c #BDD8FC",
"~.	c #B0D0FC",
"{.	c #B5D6FF",
"].	c #7D7B78",
"^.	c #74ABF7",
"/.	c #9FC5FA",
"(.	c #C4DBFD",
"_.	c #BFD9FD",
":.	c #B1D0FC",
"<.	c #A6C9FC",
"[.	c #A4C8FC",
"}.	c #A9CDFF",
"|.	c #7C7B79",
"1.	c #9CC5FF",
"2.	c #9BC4FF",
"3.	c #9AC4FF",
"4.	c #9AC3FF",
"5.	c #9EC8FF",
"6.	c #7D7D7C",
"7.	c #7B7A79",
"8.	c #7A7978",
"9.	c #797877",
"0.	c #7C7B7A",
"a.	c #7B7B7A",
"                                            ",
"                                            ",
"    .                                       ",
"    .                                       ",
"    +                         @ #           ",
"    $                     % & * =           ",
"    -                   ; > , ' )           ",
"  - -                   ! ~ { ] ^           ",
"    -                 / ( _ : < [           ",
"    $               } | 1 2 3 4 5           ",
"    -               6 7 8 9 0 a b           ",
"  - -             c d e f g h i j           ",
"    k             l m n o p q r s           ",
"    t   u v w x y z A B C D E F G           ",
"    H   I J K L M N O P Q R S T U           ",
"  - V   W X Y Z `  ...+.@.#.$.%.&.          ",
"    *.  =.-.;.>.,.'.).!.~.~.~.~.{.          ",
"    ].  ^./.(._.:.<.[.[.[.[.[.[.}.          ",
"    |.  1.2.3.4.3.2.2.2.2.2.2.2.5.          ",
"    6.7.8.9.9.9.8.9.9.9.8.9.9.9.0.a.. .     ",
"            -       -       -               ",
"                                            "};
