/* XPM */
static char * C:\Users\frank\Documents\GitHub\DSI_Studio\icons\stop_xpm[] = {
"22 22 164 2",
"  	c None",
". 	c #D69BA1",
"+ 	c #D0848C",
"@ 	c #CF8188",
"# 	c #BC4653",
"$ 	c #B32B39",
"% 	c #B32A38",
"& 	c #BC4753",
"* 	c #CF838B",
"= 	c #D0858D",
"- 	c #BC4350",
"; 	c #B0202F",
"> 	c #AE1D2C",
", 	c #BB434F",
"' 	c #BC434F",
") 	c #B0202E",
"! 	c #AF1D2C",
"~ 	c #AF1E2D",
"{ 	c #CF848C",
"] 	c #D0838B",
"^ 	c #BB424F",
"/ 	c #AE1B2A",
"( 	c #AE1C2B",
"_ 	c #AE1B2B",
": 	c #AE1A2A",
"< 	c #AF1D2D",
"[ 	c #BC4652",
"} 	c #B12231",
"| 	c #B52E3B",
"1 	c #B73442",
"2 	c #B22635",
"3 	c #B32937",
"4 	c #B6313F",
"5 	c #B63341",
"6 	c #B5303E",
"7 	c #B12533",
"8 	c #B12432",
"9 	c #B6323F",
"0 	c #B02230",
"a 	c #B12332",
"b 	c #B52E3C",
"c 	c #B63241",
"d 	c #B42B3A",
"e 	c #D69AA0",
"f 	c #D0848B",
"g 	c #B42E3C",
"h 	c #BD4651",
"i 	c #D78D95",
"j 	c #DB9BA2",
"k 	c #CB6D78",
"l 	c #C96872",
"m 	c #D9949B",
"n 	c #DDA1A6",
"o 	c #D4888F",
"p 	c #BE4955",
"q 	c #C6606A",
"r 	c #DB99A0",
"s 	c #D89298",
"t 	c #C0505B",
"u 	c #D58890",
"v 	c #DD9DA4",
"w 	c #D78F97",
"x 	c #C25660",
"y 	c #B63240",
"z 	c #CF8087",
"A 	c #B73744",
"B 	c #D17E86",
"C 	c #E0A6AD",
"D 	c #D68C93",
"E 	c #C96670",
"F 	c #D9959C",
"G 	c #E7BEC2",
"H 	c #CF7781",
"I 	c #C25561",
"J 	c #DDA0A6",
"K 	c #DA979E",
"L 	c #D78E95",
"M 	c #CA6C75",
"N 	c #E2ACB2",
"O 	c #D89299",
"P 	c #DB9AA0",
"Q 	c #B83846",
"R 	c #D4858D",
"S 	c #DD9FA6",
"T 	c #C2535F",
"U 	c #BC424F",
"V 	c #CB6D76",
"W 	c #DEA3A9",
"X 	c #BD4753",
"Y 	c #C45A66",
"Z 	c #E0A7AD",
"` 	c #C04D59",
" .	c #C65D68",
"..	c #D3858D",
"+.	c #DDA0A7",
"@.	c #C65F69",
"#.	c #CB6C76",
"$.	c #C35762",
"%.	c #B52D3C",
"&.	c #C2525D",
"*.	c #DA989F",
"=.	c #BF4C58",
"-.	c #C86670",
";.	c #B83845",
">.	c #BF4A57",
",.	c #DC9DA3",
"'.	c #D79097",
").	c #E4B5BA",
"!.	c #E0A8AD",
"~.	c #E1A9AF",
"{.	c #DA969D",
"].	c #BD4652",
"^.	c #B42C3B",
"/.	c #B22937",
"(.	c #C04D5A",
"_.	c #D9939B",
":.	c #B93947",
"<.	c #C96772",
"[.	c #BF4A56",
"}.	c #E4B3B8",
"|.	c #DD9EA4",
"1.	c #CE757D",
"2.	c #B52F3D",
"3.	c #BA3F4D",
"4.	c #C55E69",
"5.	c #C8646E",
"6.	c #DEA1A8",
"7.	c #C1505C",
"8.	c #DEA0A7",
"9.	c #C45863",
"0.	c #DFA7AD",
"a.	c #BF4E59",
"b.	c #C65D67",
"c.	c #DD9FA5",
"d.	c #C35661",
"e.	c #B02130",
"f.	c #CF8088",
"g.	c #BD4552",
"h.	c #D89199",
"i.	c #D89198",
"j.	c #C8656F",
"k.	c #DC9CA3",
"l.	c #BB414D",
"m.	c #B93C49",
"n.	c #DC9FA5",
"o.	c #DA969E",
"p.	c #C04F5B",
"q.	c #AF1C2B",
"r.	c #DA959D",
"s.	c #C55C67",
"t.	c #B22534",
"u.	c #B73341",
"v.	c #C65F68",
"w.	c #D89098",
"x.	c #C04E5B",
"y.	c #BD4451",
"z.	c #CB6B76",
"A.	c #BA3D4A",
"B.	c #B12433",
"C.	c #B32938",
"D.	c #B42938",
"E.	c #D69BA0",
"F.	c #AF1C2C",
"G.	c #BB4350",
"            . + @ @ @ @ @ @ + .             ",
"          + # $ % % % % % % $ & *           ",
"        = - ; > > > > > > > > ; , +         ",
"      + ' ) ! ~ ~ ~ ~ ~ ~ ~ ~ ! ) ' {       ",
"    + ' ; ! ~ ~ ~ ~ ~ ~ ~ ~ ~ ~ ! ; ' +     ",
"  ] ^ ~ / ! ( _ _ ( ! ! ( ( ! ! ( : < ^ ]   ",
". [ } | 1 2 3 4 5 6 7 8 5 9 0 a b c d a [ e ",
"f g h i j k l m n o p q r s t - u v w x y f ",
"z A B C i D E F G H I J m K L M N O r P p z ",
"@ Q R S T U b V W X Y Z `  .J ..+.@.#.Z $.@ ",
"@ %.&.W *.=.) l S ^ -.J ;.>.,.'.).!.~.{.].@ ",
"@ ^./.(.r _.:.<.S ' -.J ;.[.,.'.}.|.1.].2.@ ",
"@ 3.4.' 5.6.7.<.8.' 9.0.a.b.c.R v d.e.~ % @ ",
"f.g.h.m i.r ' j.k.l.m.n.m o.i #.r p.q.> % @ ",
"f y $.{.r.s.t.>.V u.8 v.r w.x.y.z.A.! > $ + ",
"e [ B.4 y a < B.C.e.~ 8 5 4 e.a D.} ! ; [ E.",
"  ] ^ ! / ! ~ ! F.~ ~ ! ( ( ! ! ! ! ; G.*   ",
"    + ' ; ! ~ ~ ~ ~ ~ ~ ~ ~ ~ ~ ! ; ' +     ",
"      { ' ) ! ~ ~ ~ ~ ~ ~ ~ ~ ! ) ' {       ",
"        + , ; > > > > > > > > ; , +         ",
"          * & $ % % % % % % $ & *           ",
"            . + @ @ @ @ @ @ + .             "};
