/* XPM */
static char * tracts_xpm[] = {
"22 22 131 2",
"  	c None",
". 	c #8D5389",
"+ 	c #815F95",
"@ 	c #9E5A75",
"# 	c #AB555F",
"$ 	c #9C656B",
"% 	c #8A737C",
"& 	c #A24E77",
"* 	c #B1475E",
"= 	c #BC4641",
"- 	c #AD5B59",
"; 	c #A06A60",
"> 	c #B4564B",
", 	c #B6425B",
"' 	c #35C227",
") 	c #21C828",
"! 	c #25C62A",
"~ 	c #30BE5B",
"{ 	c #AF6952",
"] 	c #B2564C",
"^ 	c #B65046",
"/ 	c #9D6F47",
"( 	c #788559",
"_ 	c #B06443",
": 	c #BC5130",
"< 	c #AF5D2E",
"[ 	c #37C02B",
"} 	c #24C33B",
"| 	c #2EC333",
"1 	c #22C436",
"2 	c #25BD4E",
"3 	c #B75E35",
"4 	c #B16137",
"5 	c #A4604D",
"6 	c #907252",
"7 	c #7E7C50",
"8 	c #B56526",
"9 	c #B9592D",
"0 	c #669640",
"a 	c #668647",
"b 	c #27C047",
"c 	c #28C338",
"d 	c #36C029",
"e 	c #39C029",
"f 	c #2BC13A",
"g 	c #4B8969",
"h 	c #308997",
"i 	c #A38130",
"j 	c #AC7430",
"k 	c #A1822A",
"l 	c #649D5B",
"m 	c #B04853",
"n 	c #B2593C",
"o 	c #A77921",
"p 	c #BC5131",
"q 	c #B45146",
"r 	c #B54544",
"s 	c #5DB67C",
"t 	c #459886",
"u 	c #448F87",
"v 	c #4157AE",
"w 	c #2E38C1",
"x 	c #296BA7",
"y 	c #C34A2D",
"z 	c #C34428",
"A 	c #AC6527",
"B 	c #AE6D30",
"C 	c #B3524A",
"D 	c #955275",
"E 	c #A76588",
"F 	c #8E3879",
"G 	c #56249C",
"H 	c #403EBD",
"I 	c #5631B9",
"J 	c #4D3CB9",
"K 	c #A9544E",
"L 	c #A16A5A",
"M 	c #9C5679",
"N 	c #9A538E",
"O 	c #953151",
"P 	c #542FAC",
"Q 	c #7131AB",
"R 	c #7329AC",
"S 	c #8D567E",
"T 	c #8A6B8A",
"U 	c #C24029",
"V 	c #BA3829",
"W 	c #584891",
"X 	c #6B2AAC",
"Y 	c #A64168",
"Z 	c #A8524E",
"` 	c #977BB9",
" .	c #4A9A95",
"..	c #2D72AD",
"+.	c #5D3FAF",
"@.	c #A33366",
"#.	c #BF4C21",
"$.	c #BA6137",
"%.	c #3E8C95",
"&.	c #427EA0",
"*.	c #6B589D",
"=.	c #8F3B7E",
"-.	c #C22C29",
";.	c #C14226",
">.	c #AB742D",
",.	c #35998B",
"'.	c #418F91",
").	c #518B8A",
"!.	c #8C635A",
"~.	c #876D69",
"{.	c #A54351",
"].	c #B6284B",
"^.	c #A36749",
"/.	c #8E9544",
"(.	c #35998C",
"_.	c #3F948F",
":.	c #738662",
"<.	c #8D7343",
"[.	c #579668",
"}.	c #54867A",
"|.	c #7C4B8F",
"1.	c #963D88",
"2.	c #82767D",
"3.	c #459E85",
"4.	c #9E6636",
"5.	c #628B5F",
"6.	c #37A580",
"7.	c #399B87",
"8.	c #8A7DA6",
"9.	c #278FA0",
"0.	c #3EA093",
"                                            ",
"                                            ",
"                                            ",
"            . +                             ",
"          @ # $ % &                         ",
"          * = - ; > , ' ) ! ~               ",
"      { ] ^ / ( _ : < [ } | 1 2             ",
"      3 4 5 6 7 8 9 0 a b c d e f g h       ",
"  i j k l m n o p q r s       t u v w x     ",
"        y z A B C D E           F G H I J   ",
"            K L M N             O P Q R     ",
"            S T             U V W X Y Z     ",
"            `                ...+.@.#.$.    ",
"                          %.&.*.=.-.;.>.    ",
"                      ,.'.).!.~.{.].^./.    ",
"                    (._.:.<.[.}.|.1.2.      ",
"                    3.4.5.6.7.8.            ",
"                      9.0.                  ",
"                                            ",
"                                            ",
"                                            ",
"                                            "};
