/* XPM */
static char * tracts_xpm[] = {
"22 22 150 2",
"  	c None",
". 	c #A465C8",
"+ 	c #A174C1",
"@ 	c #BD74B2",
"# 	c #DB7288",
"$ 	c #C88998",
"% 	c #9298D0",
"& 	c #D36099",
"* 	c #EE6B90",
"= 	c #F1554D",
"- 	c #DD7472",
"; 	c #A797AD",
"> 	c #CC8576",
", 	c #FC5C5B",
"' 	c #44F85E",
") 	c #DE6B7A",
"! 	c #F15268",
"~ 	c #EE5A5B",
"{ 	c #C48870",
"] 	c #9EB066",
"^ 	c #EF7945",
"/ 	c #FE5130",
"( 	c #8EC531",
"_ 	c #15FF3D",
": 	c #39FF44",
"< 	c #3BFF3E",
"[ 	c #24FA62",
"} 	c #2BF370",
"| 	c #F0745F",
"1 	c #FF554D",
"2 	c #E96159",
"3 	c #A2A969",
"4 	c #2EF75E",
"5 	c #84C830",
"6 	c #FB6B28",
"7 	c #E7762E",
"8 	c #65D33F",
"9 	c #40E260",
"0 	c #37FF50",
"a 	c #31FF39",
"b 	c #4CFF28",
"c 	c #4AFF36",
"d 	c #29FE4B",
"e 	c #5CB39D",
"f 	c #F68047",
"g 	c #F17F45",
"h 	c #B0AE4B",
"i 	c #BA836D",
"j 	c #D5616E",
"k 	c #86BC50",
"l 	c #BEA028",
"m 	c #F96033",
"n 	c #CE6A76",
"o 	c #CD6F64",
"p 	c #5CD46A",
"q 	c #52ED52",
"r 	c #5DF230",
"s 	c #54E657",
"t 	c #66C893",
"u 	c #66ADA6",
"v 	c #5868F5",
"w 	c #355EF5",
"x 	c #E9A83E",
"y 	c #EDA43F",
"z 	c #98CA53",
"A 	c #8DBA69",
"B 	c #E15E48",
"C 	c #FE472A",
"D 	c #D39C30",
"E 	c #D09640",
"F 	c #EA5F5D",
"G 	c #D265AF",
"H 	c #D05496",
"I 	c #7271F0",
"J 	c #DF3D7C",
"K 	c #6926BC",
"L 	c #4550FF",
"M 	c #705AFF",
"N 	c #BAC341",
"O 	c #A8C06B",
"P 	c #D67B4D",
"Q 	c #FE4E41",
"R 	c #FE3D44",
"S 	c #FE422B",
"T 	c #C68F5A",
"U 	c #C49470",
"V 	c #C76EA9",
"W 	c #B384C8",
"X 	c #D34160",
"Y 	c #6133D4",
"Z 	c #8E31E8",
"` 	c #882FF7",
" .	c #EF3577",
"..	c #B18A92",
"+.	c #BA97B0",
"@.	c #A582CE",
"#.	c #FE5416",
"$.	c #5A65BE",
"%.	c #5D34FE",
"&.	c #D54491",
"*.	c #DF6967",
"=.	c #BD41B9",
"-.	c #B475CB",
";.	c #B59067",
">.	c #6E97AF",
",.	c #4E58F7",
"'.	c #B82AB3",
").	c #FB5428",
"!.	c #FF6B20",
"~.	c #E1A237",
"{.	c #9C76E0",
"].	c #28BCD8",
"^.	c #4884F5",
"/.	c #A23FD3",
"(.	c #F2284F",
"_.	c #FE320E",
":.	c #EB7E28",
"<.	c #C3C242",
"[.	c #59C9BB",
"}.	c #4BC1D5",
"|.	c #6E99C5",
"1.	c #C8637C",
"2.	c #C47172",
"3.	c #E83350",
"4.	c #DF3E72",
"5.	c #C1CE6E",
"6.	c #48CFCB",
"7.	c #4FC7D3",
"8.	c #8B9F93",
"9.	c #AB9458",
"0.	c #7FB46C",
"a.	c #6EAFB2",
"b.	c #BB4ACD",
"c.	c #C66BC5",
"d.	c #A3B6A6",
"e.	c #78B8A3",
"f.	c #B4945C",
"g.	c #8AAF65",
"h.	c #42E2A6",
"i.	c #4DC9BB",
"j.	c #A664D2",
"k.	c #BD51D7",
"l.	c #43CEB7",
"m.	c #6DBA85",
"n.	c #5FBF8D",
"o.	c #3BE1B8",
"p.	c #4AD1B9",
"q.	c #46C7BD",
"r.	c #20CADF",
"s.	c #31C5C9",
"                                            ",
"                                            ",
"                                            ",
"            . +                             ",
"          @ # $ %   &                       ",
"          * = - ; > ,       '               ",
"        ) ! ~ { ] ^ / ( _ : < [ }           ",
"      | 1 2 3 4 5 6 7 8 9 0 a b c d e       ",
"    f g h i j k l m n o p q r s t u v w     ",
"  x y z A B C D E F G H         I J K L M   ",
"  N O P Q R S T U V W             X Y Z `   ",
"             ...+.@.            #.$.%.&.*.  ",
"            =.-.              ;.>.,.'.).!.~.",
"            {.                ].^./.(._.:.<.",
"                          [.}.|.1.2.3.4.5.  ",
"                        6.7.8.9.0.a.b.c.d.  ",
"                        e.f.g.h.i.j.k.      ",
"                      l.m.n.o.p.            ",
"                      q.r.s.                ",
"                                            ",
"                                            ",
"                                            "};
