/* XPM */
static char * C:\frank\myprog\project\DSI Studio\src\icons\up_xpm[] = {
"16 16 134 2",
"  	c None",
". 	c #FFFFFF",
"+ 	c #B1D8B1",
"@ 	c #76BB76",
"# 	c #67B367",
"$ 	c #5BAD5B",
"% 	c #54A954",
"& 	c #4FA74F",
"* 	c #4AA44A",
"= 	c #4BA54B",
"- 	c #46A346",
"; 	c #3FA03F",
"> 	c #3B9E3B",
", 	c #319831",
"' 	c #238C23",
") 	c #8ABB8A",
"! 	c #77BB77",
"~ 	c #9DCF9D",
"{ 	c #8CC68C",
"] 	c #79BC79",
"^ 	c #70B870",
"/ 	c #69B469",
"( 	c #65B265",
"_ 	c #62B062",
": 	c #5DAE5D",
"< 	c #56AB56",
"[ 	c #4EA74E",
"} 	c #41A141",
"| 	c #2F942F",
"1 	c #197719",
"2 	c #6BB56B",
"3 	c #8DC68D",
"4 	c #80C080",
"5 	c #6FB76F",
"6 	c #67B267",
"7 	c #60AE60",
"8 	c #4CA54C",
"9 	c #49A449",
"0 	c #3A9D3A",
"a 	c #309530",
"b 	c #1E7A1E",
"c 	c #5EAF5E",
"d 	c #7ABD7A",
"e 	c #63B063",
"f 	c #5AAB5A",
"g 	c #339933",
"h 	c #309930",
"i 	c #309830",
"j 	c #237D23",
"k 	c #53A953",
"l 	c #6CB66C",
"m 	c #68B468",
"n 	c #5EAD5E",
"o 	c #299729",
"p 	c #2B982B",
"q 	c #2D952D",
"r 	c #237E23",
"s 	c #63B163",
"t 	c #61AF61",
"u 	c #269926",
"v 	c #2A972A",
"w 	c #217E21",
"x 	c #45A245",
"y 	c #5AAC5A",
"z 	c #4EA84E",
"A 	c #41A841",
"B 	c #259A25",
"C 	c #1D7F1D",
"D 	c #3F9F3F",
"E 	c #38AA38",
"F 	c #19AC19",
"G 	c #1F9E1F",
"H 	c #188118",
"I 	c #359A35",
"J 	c #52A852",
"K 	c #49A749",
"L 	c #18A218",
"M 	c #128212",
"N 	c #2C962C",
"O 	c #42A042",
"P 	c #4CA74C",
"Q 	c #46A746",
"R 	c #1AB31A",
"S 	c #14AF14",
"T 	c #0FA30F",
"U 	c #0B800B",
"V 	c #229122",
"W 	c #389C38",
"X 	c #43A243",
"Y 	c #48A448",
"Z 	c #45A545",
"` 	c #42A642",
" .	c #21B521",
"..	c #18B618",
"+.	c #0EB10E",
"@.	c #08A308",
"#.	c #057E05",
"$.	c #198D19",
"%.	c #379C37",
"&.	c #3D9F3D",
"*.	c #3C9F3C",
"=.	c #39A139",
"-.	c #24AF24",
";.	c #1CB11C",
">.	c #13B213",
",.	c #0AAD0A",
"'.	c #049F04",
").	c #027902",
"!.	c #118311",
"~.	c #1F8C1F",
"{.	c #2A912A",
"].	c #2F932F",
"^.	c #2E942E",
"/.	c #299A29",
"(.	c #239E23",
"_.	c #1CA31C",
":.	c #15A415",
"<.	c #0DA40D",
"[.	c #059F05",
"}.	c #019101",
"|.	c #006F00",
"1.	c #85B785",
"2.	c #0F6F0F",
"3.	c #167416",
"4.	c #1A761A",
"5.	c #187818",
"6.	c #177917",
"7.	c #137D13",
"8.	c #0D7F0D",
"9.	c #0A7E0A",
"0.	c #077C07",
"a.	c #027B02",
"b.	c #007000",
"c.	c #7FB07F",
"  . . . . . . . . . . . . . .   ",
". + @ # $ % & * = - ; > , ' ) . ",
". ! ~ { ] ^ / ( _ : < [ } | 1 . ",
". 2 3 4 5 6 7 . . 8 9 } 0 a b . ",
". c d ^ e f . . . . g h i | j . ",
". k l m n . . . . . . o p q r . ",
". & s t . . . . . . . . u v w . ",
". x y . . . z . . A . . . B C . ",
". D k . . z z . . E F . . G H . ",
". I = J k z K . . F F F F L M . ",
". N O 8 & P Q . . F F R S T U . ",
". V W X Y Z ` . .  . ...+.@.#.. ",
". $.N %.&.*.=.. . -.;.>.,.'.).. ",
". !.~.{.].^.N /.(._.:.<.[.}.|.. ",
". 1.2.3.4.4.5.6.7.8.9.0.a.b.c.. ",
"  . . . . . . . . . . . . . .   "};
