/* XPM */
static char * C:\Users\frank\Downloads\zoom_in_3_xpm[] = {
"22 22 186 2",
"  	c None",
". 	c #878A87",
"+ 	c #868C8B",
"@ 	c #878B88",
"# 	c #878B89",
"$ 	c #969B9B",
"% 	c #B7C2CB",
"& 	c #CDD6DD",
"* 	c #E4E7E9",
"= 	c #888C89",
"- 	c #B1BCC5",
"; 	c #B8CCDF",
"> 	c #A3BFDC",
", 	c #97B8D9",
"' 	c #98B8D9",
") 	c #A4BFDC",
"! 	c #CED7DE",
"~ 	c #D0DBE6",
"{ 	c #95B6D9",
"] 	c #ADC7E3",
"^ 	c #B4CCE5",
"/ 	c #B3CBE5",
"( 	c #B0CAE4",
"_ 	c #A9C5E2",
": 	c #99BADC",
"< 	c #B8CFE7",
"[ 	c #BBD1E8",
"} 	c #9AB6D7",
"| 	c #668DBD",
"1 	c #658DBD",
"2 	c #94B2D6",
"3 	c #B0C9E4",
"4 	c #ACC6E3",
"5 	c #94B7DA",
"6 	c #BAD0E8",
"7 	c #BFD3E9",
"8 	c #C3D6EB",
"9 	c #698FBE",
"0 	c #ECF2F8",
"a 	c #EAF1F8",
"b 	c #648CBD",
"c 	c #ABC6E2",
"d 	c #A6C2E1",
"e 	c #93B5D8",
"f 	c #B8CBDF",
"g 	c #B1CAE4",
"h 	c #BCD1E8",
"i 	c #BFD4E9",
"j 	c #C1D5EA",
"k 	c #5E86B8",
"l 	c #EBF1F8",
"m 	c #EAF0F8",
"n 	c #5A83B7",
"o 	c #A8C4E1",
"p 	c #A3C1E0",
"q 	c #9CBCDD",
"r 	c #B5CDE6",
"s 	c #97B4D6",
"t 	c #5C85B8",
"u 	c #5C84B8",
"v 	c #E9F0F7",
"w 	c #E7EFF7",
"x 	c #5882B7",
"y 	c #5781B6",
"z 	c #5E88BB",
"A 	c #84A7D0",
"B 	c #9ABADD",
"C 	c #A1BDDB",
"D 	c #96B7D9",
"E 	c #638BBC",
"F 	c #E8EFF7",
"G 	c #E7EEF7",
"H 	c #E6EEF6",
"I 	c #E5EDF6",
"J 	c #E3ECF5",
"K 	c #E2EBF5",
"L 	c #5B86B9",
"M 	c #93B5DA",
"N 	c #8BAFD5",
"O 	c #95B6D8",
"P 	c #A6C2E0",
"Q 	c #628ABC",
"R 	c #E6EEF7",
"S 	c #E4EDF6",
"T 	c #E1EAF5",
"U 	c #5582B7",
"V 	c #7AA5D1",
"W 	c #87ACD3",
"X 	c #878C8B",
"Y 	c #CFD7DE",
"Z 	c #81A9D4",
"` 	c #729BCA",
" .	c #5783B8",
"..	c #527EB4",
"+.	c #547FB5",
"@.	c #E1EBF5",
"#.	c #E0EAF5",
"$.	c #507DB4",
"%.	c #4F7CB3",
"&.	c #5581B7",
"*.	c #719BC9",
"=.	c #84ABD5",
"-.	c #A5C0DD",
";.	c #CFD8DE",
">.	c #888B87",
",.	c #BCC5CD",
"'.	c #C1D2E2",
").	c #8BB0D7",
"!.	c #8EB2D8",
"~.	c #90B3D9",
"{.	c #91B4D9",
"].	c #517DB4",
"^.	c #DFE9F4",
"/.	c #C3D3E2",
"(.	c #BCC6CD",
"_.	c #999D9B",
":.	c #E6E9EA",
"<.	c #A2BEDC",
"[.	c #98B8DB",
"}.	c #9ABADC",
"|.	c #9CBBDD",
"1.	c #5C86BA",
"2.	c #5C87BA",
"3.	c #9DBCDD",
"4.	c #A4C0DD",
"5.	c #E7E9EA",
"6.	c #999D9C",
"7.	c #898C8A",
"8.	c #BAC2C8",
"9.	c #DBE2E9",
"0.	c #A2C0DF",
"a.	c #A4C1E0",
"b.	c #8BACD2",
"c.	c #6089BB",
"d.	c #8CADD2",
"e.	c #A8C3E1",
"f.	c #A5C1E0",
"g.	c #DCE3E9",
"h.	c #898D8A",
"i.	c #8A8D8A",
"j.	c #D8DEE1",
"k.	c #DEE4EA",
"l.	c #B7CEE4",
"m.	c #B2CAE4",
"n.	c #B9CEE5",
"o.	c #DFE5EA",
"p.	c #D9DEE2",
"q.	c #8B8D8A",
"r.	c #BFC5CA",
"s.	c #E9EBEB",
"t.	c #D7E1E9",
"u.	c #CDDBEA",
"v.	c #C4D6E8",
"w.	c #C5D6E8",
"x.	c #D8E2EA",
"y.	c #C0C6CA",
"z.	c #A2A59F",
"A.	c #A6A8A4",
"B.	c #60625F",
"C.	c #898C88",
"D.	c #9C9F9D",
"E.	c #CACFD2",
"F.	c #DEE1E2",
"G.	c #EAEBEB",
"H.	c #CBCFD2",
"I.	c #9C9F9C",
"J.	c #828581",
"K.	c #868983",
"L.	c #B9BCB6",
"M.	c #BDBFBC",
"N.	c #61635F",
"O.	c #81837F",
"P.	c #8A8D89",
"Q.	c #8A8C88",
"R.	c #787A76",
"S.	c #565854",
"T.	c #7A7B78",
"U.	c #878A84",
"V.	c #545652",
"W.	c #797A77",
"X.	c #B7B8B6",
"Y.	c #595B57",
"Z.	c #767873",
"`.	c #A0A29F",
" +	c #535551",
".+	c #555753",
"            . + @ @ + .                     ",
"        # $ % & * * & % $ #                 ",
"      = - * ; > , ' ) ; * - =               ",
"    = ! ~ { ] ^ ^ / ( _ { ~ ! =             ",
"  # - ~ : < [ } | 1 2 3 4 5 ~ - #           ",
"  $ * { 6 7 8 9 0 a b 3 c d e * $           ",
". % f g h i j k l m n ] o p q f % .         ",
"+ & > r s 1 t u v w x y z A B C & +         ",
"@ * D 3 E F w w G H I J K L M N * @         ",
"@ * O P Q w w w R H S S T U V W * @         ",
"X Y ) Z `  ...+.@.#.$.%.&.*.=.-.;.X         ",
">.,.'.).!.~.{.].^.^.].M {.~.!./.(.>.        ",
"  _.:.<.[.}.|.1.K K 2.3.|.}.4.5.6.          ",
"  7.8.9.0.a.P b.c.c.d.e.P f.g.8.h.          ",
"    i.j.k.l.3 m./ / / m.n.o.p.>.            ",
"      q.r.s.t.u.v.w.u.x.s.y.>.z.A.B.        ",
"        C.D.E.F.G.G.F.H.I.J.  K.L.M.N.      ",
"            O.P.Q.Q.>.R.      S.T.U.M.N.    ",
"                                V.W.U.M.N.  ",
"                                  V.W.U.X.Y.",
"                                    V.Z.`.Y.",
"                                       +.+  "};
