/* XPM */
static char * C:\Users\frank\Downloads\zoom_out_3_xpm[] = {
"22 22 179 2",
"  	c None",
". 	c #878A87",
"+ 	c #868C8B",
"@ 	c #878B88",
"# 	c #878B89",
"$ 	c #969B9B",
"% 	c #B7C2CB",
"& 	c #CDD6DD",
"* 	c #E4E7E9",
"= 	c #888C89",
"- 	c #B1BCC5",
"; 	c #B8CCDF",
"> 	c #A3BFDC",
", 	c #97B8D9",
"' 	c #98B8D9",
") 	c #A4BFDC",
"! 	c #CED7DE",
"~ 	c #D0DBE6",
"{ 	c #95B6D9",
"] 	c #ADC7E3",
"^ 	c #B4CCE5",
"/ 	c #B3CBE5",
"( 	c #B0CAE4",
"_ 	c #A9C5E2",
": 	c #99BADC",
"< 	c #B8CFE7",
"[ 	c #BBD1E8",
"} 	c #BCD1E8",
"| 	c #B4CCE6",
"1 	c #B0C9E4",
"2 	c #ACC6E3",
"3 	c #94B7DA",
"4 	c #BAD0E8",
"5 	c #BFD3E9",
"6 	c #C3D6EB",
"7 	c #C3D6EA",
"8 	c #BED3E9",
"9 	c #BAD0E7",
"0 	c #B5CDE6",
"a 	c #ABC6E2",
"b 	c #A6C2E1",
"c 	c #93B5D8",
"d 	c #B8CBDF",
"e 	c #B1CAE4",
"f 	c #BFD4E9",
"g 	c #C1D5EA",
"h 	c #B7CEE6",
"i 	c #B2CAE5",
"j 	c #A8C4E1",
"k 	c #A3C1E0",
"l 	c #9CBCDD",
"m 	c #97B4D6",
"n 	c #658DBD",
"o 	c #5C85B8",
"p 	c #5C84B8",
"q 	c #5B84B7",
"r 	c #5983B7",
"s 	c #5882B7",
"t 	c #5781B6",
"u 	c #5E88BB",
"v 	c #84A7D0",
"w 	c #9ABADD",
"x 	c #A1BDDB",
"y 	c #96B7D9",
"z 	c #638BBC",
"A 	c #E8EFF7",
"B 	c #E7EFF7",
"C 	c #E7EEF7",
"D 	c #E6EEF6",
"E 	c #E5EDF6",
"F 	c #E3ECF5",
"G 	c #E2EBF5",
"H 	c #5B86B9",
"I 	c #93B5DA",
"J 	c #8BAFD5",
"K 	c #95B6D8",
"L 	c #A6C2E0",
"M 	c #628ABC",
"N 	c #E6EEF7",
"O 	c #E4EDF6",
"P 	c #E1EAF5",
"Q 	c #5582B7",
"R 	c #7AA5D1",
"S 	c #87ACD3",
"T 	c #878C8B",
"U 	c #CFD7DE",
"V 	c #81A9D4",
"W 	c #729BCA",
"X 	c #5783B8",
"Y 	c #527EB4",
"Z 	c #547FB5",
"` 	c #537FB5",
" .	c #527EB5",
"..	c #507DB4",
"+.	c #4F7CB3",
"@.	c #5581B7",
"#.	c #719BC9",
"$.	c #84ABD5",
"%.	c #A5C0DD",
"&.	c #CFD8DE",
"*.	c #888B87",
"=.	c #BCC5CD",
"-.	c #C1D2E2",
";.	c #8BB0D7",
">.	c #8EB2D8",
",.	c #90B3D9",
"'.	c #91B4D9",
").	c #93B6DA",
"!.	c #94B6DA",
"~.	c #C3D3E2",
"{.	c #BCC6CD",
"].	c #999D9B",
"^.	c #E6E9EA",
"/.	c #A2BEDC",
"(.	c #98B8DB",
"_.	c #9ABADC",
":.	c #9CBBDD",
"<.	c #9DBCDD",
"[.	c #9EBDDE",
"}.	c #A4C0DD",
"|.	c #E7E9EA",
"1.	c #999D9C",
"2.	c #898C8A",
"3.	c #BAC2C8",
"4.	c #DBE2E9",
"5.	c #A2C0DF",
"6.	c #A4C1E0",
"7.	c #A8C3E1",
"8.	c #A9C4E1",
"9.	c #A5C1E0",
"0.	c #DCE3E9",
"a.	c #898D8A",
"b.	c #8A8D8A",
"c.	c #D8DEE1",
"d.	c #DEE4EA",
"e.	c #B7CEE4",
"f.	c #B2CAE4",
"g.	c #B9CEE5",
"h.	c #DFE5EA",
"i.	c #D9DEE2",
"j.	c #8B8D8A",
"k.	c #BFC5CA",
"l.	c #E9EBEB",
"m.	c #D7E1E9",
"n.	c #CDDBEA",
"o.	c #C4D6E8",
"p.	c #C5D6E8",
"q.	c #D8E2EA",
"r.	c #C0C6CA",
"s.	c #A2A59F",
"t.	c #A6A8A4",
"u.	c #60625F",
"v.	c #898C88",
"w.	c #9C9F9D",
"x.	c #CACFD2",
"y.	c #DEE1E2",
"z.	c #EAEBEB",
"A.	c #CBCFD2",
"B.	c #9C9F9C",
"C.	c #828581",
"D.	c #868983",
"E.	c #B9BCB6",
"F.	c #BDBFBC",
"G.	c #61635F",
"H.	c #81837F",
"I.	c #8A8D89",
"J.	c #8A8C88",
"K.	c #787A76",
"L.	c #565854",
"M.	c #7A7B78",
"N.	c #878A84",
"O.	c #545652",
"P.	c #797A77",
"Q.	c #B7B8B6",
"R.	c #595B57",
"S.	c #767873",
"T.	c #A0A29F",
"U.	c #535551",
"V.	c #555753",
"            . + @ @ + .                     ",
"        # $ % & * * & % $ #                 ",
"      = - * ; > , ' ) ; * - =               ",
"    = ! ~ { ] ^ ^ / ( _ { ~ ! =             ",
"  # - ~ : < [ } [ < | 1 2 3 ~ - #           ",
"  $ * { 4 5 6 7 8 9 0 1 a b c * $           ",
". % d e } f g 5 [ h i ] j k l d % .         ",
"+ & > 0 m n o p q r s t u v w x & +         ",
"@ * y 1 z A B B C D E F G H I J * @         ",
"@ * K L M B B B N D O O P Q R S * @         ",
"T U ) V W X Y Z `  ...+.@.#.$.%.&.T         ",
"*.=.-.;.>.,.'.I ).!.).I '.,.>.~.{.*.        ",
"  ].^./.(._.:.<.[.[.[.<.:._.}.|.1.          ",
"  2.3.4.5.6.L 7.8.8.8.7.L 9.0.3.a.          ",
"    b.c.d.e.1 f./ / / f.g.h.i.*.            ",
"      j.k.l.m.n.o.p.n.q.l.r.*.s.t.u.        ",
"        v.w.x.y.z.z.y.A.B.C.  D.E.F.G.      ",
"            H.I.J.J.*.K.      L.M.N.F.G.    ",
"                                O.P.N.F.G.  ",
"                                  O.P.N.Q.R.",
"                                    O.S.T.R.",
"                                      U.V.  "};
